<?xml version="1.0" encoding="UTF-8" standalone="no"?>
<!-- Created with Inkscape (http://www.inkscape.org/) -->

<svg
   width="69.928299mm"
   height="43.813137mm"
   viewBox="0 0 69.928299 43.813137"
   version="1.1"
   id="svg52647"
   xmlns="http://www.w3.org/2000/svg"
   xmlns:svg="http://www.w3.org/2000/svg">
  <defs
     id="defs52644">
    <linearGradient
       x1="0"
       y1="0"
       x2="1"
       y2="0"
       gradientUnits="userSpaceOnUse"
       gradientTransform="matrix(92.727035,0,0,-92.727035,392.83377,438.60178)"
       spreadMethod="pad"
       id="linearGradient1174">
      <stop
         style="stop-opacity:1;stop-color:#dfb125"
         offset="0"
         id="stop1160" />
      <stop
         style="stop-opacity:1;stop-color:#fcf38e"
         offset="0.227451"
         id="stop1162" />
      <stop
         style="stop-opacity:1;stop-color:#deb026"
         offset="0.521569"
         id="stop1164" />
      <stop
         style="stop-opacity:1;stop-color:#f9ef7b"
         offset="0.752941"
         id="stop1166" />
      <stop
         style="stop-opacity:1;stop-color:#e0b424"
         offset="0.827451"
         id="stop1168" />
      <stop
         style="stop-opacity:1;stop-color:#eacd49"
         offset="0.921569"
         id="stop1170" />
      <stop
         style="stop-opacity:1;stop-color:#f9f28d"
         offset="1"
         id="stop1172" />
    </linearGradient>
    <linearGradient
       x1="0"
       y1="0"
       x2="1"
       y2="0"
       gradientUnits="userSpaceOnUse"
       gradientTransform="matrix(55.683918,0,0,-55.683918,411.00336,460.43372)"
       spreadMethod="pad"
       id="linearGradient1204">
      <stop
         style="stop-opacity:1;stop-color:#dfb125"
         offset="0"
         id="stop1190" />
      <stop
         style="stop-opacity:1;stop-color:#fcf38e"
         offset="0.227451"
         id="stop1192" />
      <stop
         style="stop-opacity:1;stop-color:#deb026"
         offset="0.521569"
         id="stop1194" />
      <stop
         style="stop-opacity:1;stop-color:#f9ef7b"
         offset="0.752941"
         id="stop1196" />
      <stop
         style="stop-opacity:1;stop-color:#e0b424"
         offset="0.827451"
         id="stop1198" />
      <stop
         style="stop-opacity:1;stop-color:#eacd49"
         offset="0.921569"
         id="stop1200" />
      <stop
         style="stop-opacity:1;stop-color:#f9f28d"
         offset="1"
         id="stop1202" />
    </linearGradient>
    <linearGradient
       x1="0"
       y1="0"
       x2="1"
       y2="0"
       gradientUnits="userSpaceOnUse"
       gradientTransform="matrix(53.123417,0,0,-53.123417,412.18301,434.27301)"
       spreadMethod="pad"
       id="linearGradient1234">
      <stop
         style="stop-opacity:1;stop-color:#dfb125"
         offset="0"
         id="stop1220" />
      <stop
         style="stop-opacity:1;stop-color:#fcf38e"
         offset="0.227451"
         id="stop1222" />
      <stop
         style="stop-opacity:1;stop-color:#deb026"
         offset="0.521569"
         id="stop1224" />
      <stop
         style="stop-opacity:1;stop-color:#f9ef7b"
         offset="0.752941"
         id="stop1226" />
      <stop
         style="stop-opacity:1;stop-color:#e0b424"
         offset="0.827451"
         id="stop1228" />
      <stop
         style="stop-opacity:1;stop-color:#eacd49"
         offset="0.921569"
         id="stop1230" />
      <stop
         style="stop-opacity:1;stop-color:#f9f28d"
         offset="1"
         id="stop1232" />
    </linearGradient>
    <linearGradient
       x1="0"
       y1="0"
       x2="1"
       y2="0"
       gradientUnits="userSpaceOnUse"
       gradientTransform="matrix(115.79905,0,0,-115.79905,381.24905,411.06338)"
       spreadMethod="pad"
       id="linearGradient1264">
      <stop
         style="stop-opacity:1;stop-color:#dfb125"
         offset="0"
         id="stop1250" />
      <stop
         style="stop-opacity:1;stop-color:#fcf38e"
         offset="0.227451"
         id="stop1252" />
      <stop
         style="stop-opacity:1;stop-color:#deb026"
         offset="0.521569"
         id="stop1254" />
      <stop
         style="stop-opacity:1;stop-color:#f9ef7b"
         offset="0.752941"
         id="stop1256" />
      <stop
         style="stop-opacity:1;stop-color:#e0b424"
         offset="0.827451"
         id="stop1258" />
      <stop
         style="stop-opacity:1;stop-color:#eacd49"
         offset="0.921569"
         id="stop1260" />
      <stop
         style="stop-opacity:1;stop-color:#f9f28d"
         offset="1"
         id="stop1262" />
    </linearGradient>
    <linearGradient
       x1="0"
       y1="0"
       x2="1"
       y2="0"
       gradientUnits="userSpaceOnUse"
       gradientTransform="matrix(23.820284,5.9116035,5.9116035,-23.820284,379.30438,433.686)"
       spreadMethod="pad"
       id="linearGradient1294">
      <stop
         style="stop-opacity:1;stop-color:#dfb125"
         offset="0"
         id="stop1280" />
      <stop
         style="stop-opacity:1;stop-color:#fcf38e"
         offset="0.227451"
         id="stop1282" />
      <stop
         style="stop-opacity:1;stop-color:#deb026"
         offset="0.521569"
         id="stop1284" />
      <stop
         style="stop-opacity:1;stop-color:#f9ef7b"
         offset="0.752941"
         id="stop1286" />
      <stop
         style="stop-opacity:1;stop-color:#e0b424"
         offset="0.827451"
         id="stop1288" />
      <stop
         style="stop-opacity:1;stop-color:#eacd49"
         offset="0.921569"
         id="stop1290" />
      <stop
         style="stop-opacity:1;stop-color:#f9f28d"
         offset="1"
         id="stop1292" />
    </linearGradient>
    <linearGradient
       x1="0"
       y1="0"
       x2="1"
       y2="0"
       gradientUnits="userSpaceOnUse"
       gradientTransform="matrix(-20.342871,7.1286979,7.1286979,20.342871,497.77106,430.25833)"
       spreadMethod="pad"
       id="linearGradient1324">
      <stop
         style="stop-opacity:1;stop-color:#dfb125"
         offset="0"
         id="stop1310" />
      <stop
         style="stop-opacity:1;stop-color:#fcf38e"
         offset="0.227451"
         id="stop1312" />
      <stop
         style="stop-opacity:1;stop-color:#deb026"
         offset="0.521569"
         id="stop1314" />
      <stop
         style="stop-opacity:1;stop-color:#f9ef7b"
         offset="0.752941"
         id="stop1316" />
      <stop
         style="stop-opacity:1;stop-color:#e0b424"
         offset="0.827451"
         id="stop1318" />
      <stop
         style="stop-opacity:1;stop-color:#eacd49"
         offset="0.921569"
         id="stop1320" />
      <stop
         style="stop-opacity:1;stop-color:#f9f28d"
         offset="1"
         id="stop1322" />
    </linearGradient>
    <linearGradient
       x1="0"
       y1="0"
       x2="1"
       y2="0"
       gradientUnits="userSpaceOnUse"
       gradientTransform="matrix(115.79905,0,0,-115.79905,381.24905,411.06149)"
       spreadMethod="pad"
       id="linearGradient1354">
      <stop
         style="stop-opacity:1;stop-color:#dfb125"
         offset="0"
         id="stop1340" />
      <stop
         style="stop-opacity:1;stop-color:#fcf38e"
         offset="0.227451"
         id="stop1342" />
      <stop
         style="stop-opacity:1;stop-color:#deb026"
         offset="0.521569"
         id="stop1344" />
      <stop
         style="stop-opacity:1;stop-color:#f9ef7b"
         offset="0.752941"
         id="stop1346" />
      <stop
         style="stop-opacity:1;stop-color:#e0b424"
         offset="0.827451"
         id="stop1348" />
      <stop
         style="stop-opacity:1;stop-color:#eacd49"
         offset="0.921569"
         id="stop1350" />
      <stop
         style="stop-opacity:1;stop-color:#f9f28d"
         offset="1"
         id="stop1352" />
    </linearGradient>
    <linearGradient
       x1="0"
       y1="0"
       x2="1"
       y2="0"
       gradientUnits="userSpaceOnUse"
       gradientTransform="matrix(115.79905,0,0,-115.79905,381.24905,411.06592)"
       spreadMethod="pad"
       id="linearGradient1384">
      <stop
         style="stop-opacity:1;stop-color:#dfb125"
         offset="0"
         id="stop1370" />
      <stop
         style="stop-opacity:1;stop-color:#fcf38e"
         offset="0.227451"
         id="stop1372" />
      <stop
         style="stop-opacity:1;stop-color:#deb026"
         offset="0.521569"
         id="stop1374" />
      <stop
         style="stop-opacity:1;stop-color:#f9ef7b"
         offset="0.752941"
         id="stop1376" />
      <stop
         style="stop-opacity:1;stop-color:#e0b424"
         offset="0.827451"
         id="stop1378" />
      <stop
         style="stop-opacity:1;stop-color:#eacd49"
         offset="0.921569"
         id="stop1380" />
      <stop
         style="stop-opacity:1;stop-color:#f9f28d"
         offset="1"
         id="stop1382" />
    </linearGradient>
    <linearGradient
       x1="0"
       y1="0"
       x2="1"
       y2="0"
       gradientUnits="userSpaceOnUse"
       gradientTransform="matrix(115.79905,0,0,-115.79905,381.24905,411.07809)"
       spreadMethod="pad"
       id="linearGradient1414">
      <stop
         style="stop-opacity:1;stop-color:#dfb125"
         offset="0"
         id="stop1400" />
      <stop
         style="stop-opacity:1;stop-color:#fcf38e"
         offset="0.227451"
         id="stop1402" />
      <stop
         style="stop-opacity:1;stop-color:#deb026"
         offset="0.521569"
         id="stop1404" />
      <stop
         style="stop-opacity:1;stop-color:#f9ef7b"
         offset="0.752941"
         id="stop1406" />
      <stop
         style="stop-opacity:1;stop-color:#e0b424"
         offset="0.827451"
         id="stop1408" />
      <stop
         style="stop-opacity:1;stop-color:#eacd49"
         offset="0.921569"
         id="stop1410" />
      <stop
         style="stop-opacity:1;stop-color:#f9f28d"
         offset="1"
         id="stop1412" />
    </linearGradient>
    <linearGradient
       x1="0"
       y1="0"
       x2="1"
       y2="0"
       gradientUnits="userSpaceOnUse"
       gradientTransform="matrix(115.79905,0,0,-115.79905,381.24905,411.06497)"
       spreadMethod="pad"
       id="linearGradient1444">
      <stop
         style="stop-opacity:1;stop-color:#dfb125"
         offset="0"
         id="stop1430" />
      <stop
         style="stop-opacity:1;stop-color:#fcf38e"
         offset="0.227451"
         id="stop1432" />
      <stop
         style="stop-opacity:1;stop-color:#deb026"
         offset="0.521569"
         id="stop1434" />
      <stop
         style="stop-opacity:1;stop-color:#f9ef7b"
         offset="0.752941"
         id="stop1436" />
      <stop
         style="stop-opacity:1;stop-color:#e0b424"
         offset="0.827451"
         id="stop1438" />
      <stop
         style="stop-opacity:1;stop-color:#eacd49"
         offset="0.921569"
         id="stop1440" />
      <stop
         style="stop-opacity:1;stop-color:#f9f28d"
         offset="1"
         id="stop1442" />
    </linearGradient>
    <linearGradient
       x1="0"
       y1="0"
       x2="1"
       y2="0"
       gradientUnits="userSpaceOnUse"
       gradientTransform="matrix(115.79905,0,0,-115.79905,381.24905,410.9436)"
       spreadMethod="pad"
       id="linearGradient1474">
      <stop
         style="stop-opacity:1;stop-color:#dfb125"
         offset="0"
         id="stop1460" />
      <stop
         style="stop-opacity:1;stop-color:#fcf38e"
         offset="0.227451"
         id="stop1462" />
      <stop
         style="stop-opacity:1;stop-color:#deb026"
         offset="0.521569"
         id="stop1464" />
      <stop
         style="stop-opacity:1;stop-color:#f9ef7b"
         offset="0.752941"
         id="stop1466" />
      <stop
         style="stop-opacity:1;stop-color:#e0b424"
         offset="0.827451"
         id="stop1468" />
      <stop
         style="stop-opacity:1;stop-color:#eacd49"
         offset="0.921569"
         id="stop1470" />
      <stop
         style="stop-opacity:1;stop-color:#f9f28d"
         offset="1"
         id="stop1472" />
    </linearGradient>
    <linearGradient
       x1="0"
       y1="0"
       x2="1"
       y2="0"
       gradientUnits="userSpaceOnUse"
       gradientTransform="matrix(115.79905,0,0,-115.79905,381.24905,411.06696)"
       spreadMethod="pad"
       id="linearGradient1504">
      <stop
         style="stop-opacity:1;stop-color:#dfb125"
         offset="0"
         id="stop1490" />
      <stop
         style="stop-opacity:1;stop-color:#fcf38e"
         offset="0.227451"
         id="stop1492" />
      <stop
         style="stop-opacity:1;stop-color:#deb026"
         offset="0.521569"
         id="stop1494" />
      <stop
         style="stop-opacity:1;stop-color:#f9ef7b"
         offset="0.752941"
         id="stop1496" />
      <stop
         style="stop-opacity:1;stop-color:#e0b424"
         offset="0.827451"
         id="stop1498" />
      <stop
         style="stop-opacity:1;stop-color:#eacd49"
         offset="0.921569"
         id="stop1500" />
      <stop
         style="stop-opacity:1;stop-color:#f9f28d"
         offset="1"
         id="stop1502" />
    </linearGradient>
    <linearGradient
       x1="0"
       y1="0"
       x2="1"
       y2="0"
       gradientUnits="userSpaceOnUse"
       gradientTransform="matrix(115.79905,0,0,-115.79905,381.24905,411.06186)"
       spreadMethod="pad"
       id="linearGradient1534">
      <stop
         style="stop-opacity:1;stop-color:#dfb125"
         offset="0"
         id="stop1520" />
      <stop
         style="stop-opacity:1;stop-color:#fcf38e"
         offset="0.227451"
         id="stop1522" />
      <stop
         style="stop-opacity:1;stop-color:#deb026"
         offset="0.521569"
         id="stop1524" />
      <stop
         style="stop-opacity:1;stop-color:#f9ef7b"
         offset="0.752941"
         id="stop1526" />
      <stop
         style="stop-opacity:1;stop-color:#e0b424"
         offset="0.827451"
         id="stop1528" />
      <stop
         style="stop-opacity:1;stop-color:#eacd49"
         offset="0.921569"
         id="stop1530" />
      <stop
         style="stop-opacity:1;stop-color:#f9f28d"
         offset="1"
         id="stop1532" />
    </linearGradient>
    <linearGradient
       x1="0"
       y1="0"
       x2="1"
       y2="0"
       gradientUnits="userSpaceOnUse"
       gradientTransform="matrix(23.820284,5.9116035,5.9116035,-23.820284,379.40738,433.271)"
       spreadMethod="pad"
       id="linearGradient1564">
      <stop
         style="stop-opacity:1;stop-color:#dfb125"
         offset="0"
         id="stop1550" />
      <stop
         style="stop-opacity:1;stop-color:#fcf38e"
         offset="0.227451"
         id="stop1552" />
      <stop
         style="stop-opacity:1;stop-color:#deb026"
         offset="0.521569"
         id="stop1554" />
      <stop
         style="stop-opacity:1;stop-color:#f9ef7b"
         offset="0.752941"
         id="stop1556" />
      <stop
         style="stop-opacity:1;stop-color:#e0b424"
         offset="0.827451"
         id="stop1558" />
      <stop
         style="stop-opacity:1;stop-color:#eacd49"
         offset="0.921569"
         id="stop1560" />
      <stop
         style="stop-opacity:1;stop-color:#f9f28d"
         offset="1"
         id="stop1562" />
    </linearGradient>
    <linearGradient
       x1="0"
       y1="0"
       x2="1"
       y2="0"
       gradientUnits="userSpaceOnUse"
       gradientTransform="matrix(-20.342871,7.1286979,7.1286979,20.342871,497.73422,430.15326)"
       spreadMethod="pad"
       id="linearGradient1594">
      <stop
         style="stop-opacity:1;stop-color:#dfb125"
         offset="0"
         id="stop1580" />
      <stop
         style="stop-opacity:1;stop-color:#fcf38e"
         offset="0.227451"
         id="stop1582" />
      <stop
         style="stop-opacity:1;stop-color:#deb026"
         offset="0.521569"
         id="stop1584" />
      <stop
         style="stop-opacity:1;stop-color:#f9ef7b"
         offset="0.752941"
         id="stop1586" />
      <stop
         style="stop-opacity:1;stop-color:#e0b424"
         offset="0.827451"
         id="stop1588" />
      <stop
         style="stop-opacity:1;stop-color:#eacd49"
         offset="0.921569"
         id="stop1590" />
      <stop
         style="stop-opacity:1;stop-color:#f9f28d"
         offset="1"
         id="stop1592" />
    </linearGradient>
    <linearGradient
       x1="0"
       y1="0"
       x2="1"
       y2="0"
       gradientUnits="userSpaceOnUse"
       gradientTransform="matrix(115.79905,0,0,-115.79905,381.24905,411.06226)"
       spreadMethod="pad"
       id="linearGradient1624">
      <stop
         style="stop-opacity:1;stop-color:#dfb125"
         offset="0"
         id="stop1610" />
      <stop
         style="stop-opacity:1;stop-color:#fcf38e"
         offset="0.227451"
         id="stop1612" />
      <stop
         style="stop-opacity:1;stop-color:#deb026"
         offset="0.521569"
         id="stop1614" />
      <stop
         style="stop-opacity:1;stop-color:#f9ef7b"
         offset="0.752941"
         id="stop1616" />
      <stop
         style="stop-opacity:1;stop-color:#e0b424"
         offset="0.827451"
         id="stop1618" />
      <stop
         style="stop-opacity:1;stop-color:#eacd49"
         offset="0.921569"
         id="stop1620" />
      <stop
         style="stop-opacity:1;stop-color:#f9f28d"
         offset="1"
         id="stop1622" />
    </linearGradient>
    <linearGradient
       x1="0"
       y1="0"
       x2="1"
       y2="0"
       gradientUnits="userSpaceOnUse"
       gradientTransform="matrix(5.4425826,0,0,-5.4425826,415.85754,448.61334)"
       spreadMethod="pad"
       id="linearGradient1698">
      <stop
         style="stop-opacity:1;stop-color:#dfb125"
         offset="0"
         id="stop1684" />
      <stop
         style="stop-opacity:1;stop-color:#fcf38e"
         offset="0.227451"
         id="stop1686" />
      <stop
         style="stop-opacity:1;stop-color:#deb026"
         offset="0.521569"
         id="stop1688" />
      <stop
         style="stop-opacity:1;stop-color:#f9ef7b"
         offset="0.752941"
         id="stop1690" />
      <stop
         style="stop-opacity:1;stop-color:#e0b424"
         offset="0.827451"
         id="stop1692" />
      <stop
         style="stop-opacity:1;stop-color:#eacd49"
         offset="0.921569"
         id="stop1694" />
      <stop
         style="stop-opacity:1;stop-color:#f9f28d"
         offset="1"
         id="stop1696" />
    </linearGradient>
    <linearGradient
       x1="0"
       y1="0"
       x2="1"
       y2="0"
       gradientUnits="userSpaceOnUse"
       gradientTransform="matrix(5.4612474,0,0,-5.4612474,456.47409,447.97131)"
       spreadMethod="pad"
       id="linearGradient1728">
      <stop
         style="stop-opacity:1;stop-color:#dfb125"
         offset="0"
         id="stop1714" />
      <stop
         style="stop-opacity:1;stop-color:#fcf38e"
         offset="0.227451"
         id="stop1716" />
      <stop
         style="stop-opacity:1;stop-color:#deb026"
         offset="0.521569"
         id="stop1718" />
      <stop
         style="stop-opacity:1;stop-color:#f9ef7b"
         offset="0.752941"
         id="stop1720" />
      <stop
         style="stop-opacity:1;stop-color:#e0b424"
         offset="0.827451"
         id="stop1722" />
      <stop
         style="stop-opacity:1;stop-color:#eacd49"
         offset="0.921569"
         id="stop1724" />
      <stop
         style="stop-opacity:1;stop-color:#f9f28d"
         offset="1"
         id="stop1726" />
    </linearGradient>
    <clipPath
       clipPathUnits="userSpaceOnUse"
       id="clipPath1184-9">
      <path
         d="m 439.334,471.666 c -0.761,2.441 -2.421,3.784 -4.912,3.944 v 0 c -2.785,0.179 -4.809,-1.06 -5.984,-3.608 v 0 c -3.52,-0.071 -6.496,-1.089 -8.071,-4.542 v 0 c -1.724,-0.508 -3.177,-1.4 -4.174,-2.868 v 0 c -1.016,-1.499 -1.117,-3.22 -0.911,-4.985 v 0 c -1.157,-0.984 -2.077,-2.13 -2.601,-3.573 v 0 c -0.53,-1.464 -0.427,-2.919 0,-4.375 v 0 c -0.799,-0.883 -1.242,-1.913 -1.483,-3.034 v 0 c -0.17,-0.791 -0.265,-1.591 -0.132,-2.401 v 0 c 0.36,0.082 0.72,0.164 1.068,0.293 v 0 c -0.072,1.552 0.25,2.99 1.233,4.235 v 0 c 0.005,0.008 0.009,0.016 0.015,0.022 v 0 c 0.377,0.407 0.48,0.848 0.314,1.402 v 0 c -0.214,0.711 -0.33,1.447 -0.268,2.203 v 0 c 0.103,1.246 0.968,2.976 1.887,3.714 v 0 c 0.236,-0.358 0.466,-0.721 0.71,-1.074 v 0 c 1.108,-1.605 2.656,-2.504 4.563,-2.794 v 0 c 1.201,-0.182 2.408,-0.221 3.615,-0.018 v 0 c 0.444,0.075 0.822,-0.019 1.18,-0.351 v 0 c 1.008,-0.935 2.235,-1.4 3.596,-1.518 v 0 c 0.471,-0.041 0.813,0.376 0.72,0.84 v 0 c -0.041,0.196 -0.192,0.271 -0.348,0.342 v 0 c -0.387,0.176 -0.813,0.203 -1.218,0.32 v 0 c -1.584,0.457 -2.735,1.357 -3.095,3.049 v 0 c -0.197,0.927 -0.143,1.853 0.046,2.796 v 0 c 0.634,0.13 1.269,0.275 1.842,0.647 v 0 c -0.075,0.227 -0.148,0.443 -0.223,0.671 v 0 c -0.524,-0.132 -1.011,-0.316 -1.525,-0.399 v 0 c -0.68,-0.111 -1.303,-0.042 -1.808,0.495 v 0 c -0.146,0.155 -0.321,0.287 -0.525,0.375 v 0 c -0.234,-0.027 -0.352,-0.224 -0.529,-0.354 v 0 c 0.262,-0.633 0.93,-0.83 1.362,-1.296 v 0 c -0.099,-1.434 -0.149,-2.875 0.324,-4.298 v 0 c -1.776,-0.221 -3.502,-0.197 -5.115,0.625 v 0 c -1.588,0.81 -2.383,2.16 -2.546,3.915 v 0 c -0.089,0.947 -0.037,1.878 0.24,2.793 v 0 c 0.431,1.426 1.479,2.289 2.711,2.981 v 0 c 0.582,0.327 1.212,0.53 1.885,0.649 v 0 c 0.545,1.492 1.432,2.697 2.873,3.441 v 0 c 1.192,0.618 2.462,0.893 3.825,0.927 v 0 c 0,-0.558 0.007,-1.093 -10e-4,-1.628 v 0 c -0.05,-3.431 2.468,-5.476 5.049,-6.013 v 0 c 0.209,-0.044 0.422,-0.074 0.646,-0.114 v 0 c 0.225,-0.584 0.456,-1.167 0.936,-1.631 v 0 c 0.159,0.134 0.332,0.243 0.435,0.44 v 0 c -0.013,0.232 -0.105,0.449 -0.209,0.652 v 0 c -0.496,0.961 -0.469,1.911 0.032,2.858 v 0 c 0.037,0.07 0.067,0.145 0.097,0.22 v 0 c 0.007,0.016 0.007,0.035 0.011,0.06 v 0 c -0.067,0.108 -0.186,0.154 -0.293,0.215 v 0 c -0.191,0.108 -0.352,0.077 -0.497,-0.098 v 0 c -0.228,-0.276 -0.353,-0.599 -0.461,-0.933 v 0 c -0.046,-0.144 -0.098,-0.284 -0.152,-0.439 v 0 c -0.961,0.096 -1.797,0.449 -2.528,1.049 v 0 c -1.073,0.879 -1.635,2.017 -1.72,3.398 v 0 c -0.058,0.927 -0.055,1.852 0.297,2.729 v 0 c 0.659,1.642 1.92,2.543 3.632,2.837 v 0 c 1.055,0.181 2.082,0.046 3.03,-0.462 v 0 c 1.486,-0.798 2.156,-2.11 2.19,-3.748 v 0 c 0.038,-1.883 -0.071,-3.765 -0.114,-5.647 v 0 c -0.03,-1.309 -0.074,-2.618 -0.084,-3.926 v 0 c -0.009,-1.334 -0.368,-2.578 -0.867,-3.799 v 0 c -0.531,-1.3 -1.169,-2.537 -2.019,-3.659 v 0 c -1.045,-1.38 -2.424,-2.351 -3.917,-3.178 v 0 c -0.265,-0.148 -0.544,-0.27 -0.818,-0.405 v 0 c 0.361,-0.103 0.72,0.02 1.079,0.022 v 0 c 0.526,0.004 1.05,0.061 1.574,0.092 v 0 c 0.09,0.005 0.177,0.007 0.258,0.051 v 0 c 1.912,1.313 3.328,3.07 4.488,5.06 v 0 c 0.171,-1.682 -0.034,-3.338 -0.064,-4.996 v 0 c 0.68,-0.002 1.362,-0.003 2.043,-0.006 v 0 c 10e-4,1.238 -0.009,2.476 0.006,3.713 v 0 c 0.007,0.51 0.067,1.019 0.102,1.528 v 0 c 0.01,0.01 0.02,0.02 0.031,0.031 v 0 c 0.006,-0.014 0.013,-0.026 0.02,-0.039 v 0 c 0.51,-0.861 0.996,-1.738 1.591,-2.546 v 0 c 0.812,-1.104 1.801,-2.033 2.895,-2.853 v 0 c 0.376,-0.127 0.773,-0.091 1.158,-0.138 v 0 c 0.512,-0.063 1.028,-0.09 1.542,-0.133 v 0 c 0.069,-0.005 0.143,-0.02 0.2,0.043 v 0 c -3.168,1.508 -5.353,3.901 -6.52,7.218 v 0 c -0.417,1.187 -0.847,2.368 -0.849,3.645 v 0 c -10e-4,1.148 0.033,2.295 0.052,3.443 v 0 c 0.016,0.968 0.031,1.937 0.052,2.904 v 0 c 0.028,1.282 0.043,2.564 0.094,3.846 v 0 c 0.088,2.244 1.813,3.963 4.058,4.054 v 0 c 1.835,0.073 3.338,-0.57 4.387,-2.115 v 0 c 0.634,-0.934 0.761,-1.998 0.698,-3.091 v 0 c -0.056,-0.965 -0.214,-1.909 -0.779,-2.731 v 0 c -0.887,-1.291 -2.109,-2.008 -3.693,-2.154 v 0 c -0.217,0.548 -0.252,1.175 -0.746,1.57 v 0 c -0.257,0.051 -0.424,-0.119 -0.637,-0.223 v 0 c 0.219,-0.63 0.515,-1.228 0.448,-1.919 v 0 c -0.067,-0.68 -0.487,-1.226 -0.666,-1.867 v 0 c 0.088,-0.204 0.253,-0.336 0.431,-0.476 v 0 c 0.488,0.434 0.745,0.994 0.994,1.586 v 0 c 0.711,0.073 1.423,0.206 2.098,0.485 v 0 c 1.776,0.735 3.056,1.95 3.612,3.827 v 0 c 0.284,0.963 0.259,1.969 0.301,2.962 v 0 c 0.002,0.061 0,0.123 0,0.227 v 0 c 1.464,-0.083 2.81,-0.461 4.042,-1.236 v 0 c 1.27,-0.801 2.012,-1.986 2.472,-3.398 v 0 c 0.579,-0.138 1.146,-0.33 1.672,-0.624 v 0 c 0.937,-0.525 1.77,-1.181 2.32,-2.114 v 0 c 0.638,-1.084 0.729,-2.29 0.615,-3.516 v 0 c -0.045,-0.483 -0.123,-0.962 -0.279,-1.422 v 0 c -0.543,-1.619 -1.692,-2.595 -3.304,-3.062 v 0 c -1.384,-0.4 -2.781,-0.354 -4.183,-0.118 v 0 c -0.035,0.006 -0.067,0.022 -0.114,0.037 v 0 c 0.527,1.375 0.525,2.808 0.502,4.253 v 0 c 0.424,0.459 1.129,0.612 1.415,1.27 v 0 c -0.035,0.022 -0.069,0.038 -0.095,0.061 v 0 c -0.394,0.36 -0.451,0.398 -0.824,0.037 v 0 c -0.703,-0.679 -1.494,-0.687 -2.349,-0.423 v 0 c -0.367,0.114 -0.732,0.238 -1.12,0.366 v 0 c -0.087,-0.22 -0.17,-0.433 -0.26,-0.661 v 0 c 0.552,-0.381 1.167,-0.565 1.81,-0.721 v 0 c 0.111,-0.559 0.133,-1.121 0.099,-1.684 v 0 c -0.065,-1.122 -0.355,-2.155 -1.227,-2.946 v 0 c -0.685,-0.621 -1.496,-0.969 -2.397,-1.133 v 0 c -0.317,-0.059 -0.64,-0.083 -0.945,-0.2 v 0 c -0.348,-0.133 -0.483,-0.336 -0.425,-0.644 v 0 c 0.064,-0.331 0.335,-0.581 0.654,-0.571 v 0 c 1.376,0.048 2.631,0.457 3.688,1.352 v 0 c 0.388,0.328 0.778,0.395 1.243,0.306 v 0 c 1.451,-0.28 2.91,-0.295 4.355,0.002 v 0 c 1.665,0.341 3.006,1.219 4.003,2.605 v 0 c 0.22,0.305 0.437,0.612 0.674,0.944 v 0 c 1.361,-1.605 2.068,-3.361 1.507,-5.471 v 0 c -0.09,-0.337 -0.166,-0.679 -0.266,-1.013 v 0 c -0.046,-0.152 -0.031,-0.281 0.043,-0.411 v 0 c 0.09,-0.155 0.169,-0.318 0.274,-0.461 v 0 c 0.994,-1.351 1.274,-2.873 1.1,-4.509 v 0 c 0.36,-0.123 0.722,-0.246 1.082,-0.37 v 0 c 0.305,2.069 -0.094,3.971 -1.365,5.689 v 0 c 0.48,1.422 0.636,2.865 0.174,4.341 v 0 c -0.459,1.465 -1.33,2.647 -2.451,3.687 v 0 c 0.697,4.037 -0.997,6.669 -4.764,8.076 v 0 c -0.171,0.411 -0.363,0.816 -0.593,1.202 v 0 c -0.232,0.386 -0.489,0.753 -0.799,1.079 v 0 c -1.33,1.396 -3.003,2.103 -4.873,2.413 v 0 c -0.538,0.089 -1.086,0.088 -1.597,0.16 v 0 c -0.958,2.372 -2.703,3.702 -5.202,3.846 v 0 c -0.161,0.01 -0.32,0.014 -0.475,0.014 v 0 c -2.639,0 -4.448,-1.347 -5.311,-4.021"
         id="path1182-6" />
    </clipPath>
    <clipPath
       clipPathUnits="userSpaceOnUse"
       id="clipPath1154-0">
      <path
         d="m 397.608,453.375 c -1.451,-0.476 -2.906,-0.949 -4.358,-1.425 v 0 c -0.354,-0.116 -0.452,-0.266 -0.405,-0.64 v 0 c 0.016,-0.123 0.047,-0.246 0.087,-0.364 v 0 c 0.235,-0.722 0.475,-1.441 0.713,-2.162 v 0 c 2.179,-6.621 4.362,-13.242 6.536,-19.866 v 0 c 0.365,-1.109 0.768,-2.208 1.065,-3.333 v 0 c 0.303,-0.034 0.583,-0.06 0.867,0.041 v 0 c 0.691,0.243 1.387,0.472 2.081,0.704 v 0 c 0.855,0.285 1.712,0.568 2.56,0.849 v 0 c 0.06,0.175 0.051,0.334 0.034,0.495 v 0 c -0.052,0.487 -0.265,0.926 -0.416,1.384 v 0 c -0.895,2.725 -1.793,5.449 -2.685,8.175 v 0 c -0.22,0.671 -0.471,1.332 -0.644,2.016 v 0 c -0.084,0.12 -0.104,0.261 -0.153,0.422 v 0 c 0.566,0.217 1.123,0.442 1.685,0.647 v 0 c 4.772,1.741 9.66,3.064 14.642,4.046 v 0 c 2.293,0.452 4.6,0.824 6.92,1.114 v 0 c 1.52,0.19 3.042,0.348 4.572,0.452 v 0 c 1.359,0.093 2.717,0.175 4.08,0.223 v 0 c 1.983,0.07 3.965,0.074 5.946,0.015 v 0 c 2.195,-0.064 4.383,-0.221 6.568,-0.45 v 0 c 3.854,-0.404 7.662,-1.068 11.42,-2.009 v 0 c 4.924,-1.235 9.688,-2.921 14.274,-5.105 v 0 c 0.518,-0.246 1.032,-0.501 1.548,-0.752 v 0 c 0.078,-0.039 0.154,-0.085 0.23,-0.127 v 0 c -0.034,-0.159 -0.075,-0.294 -0.157,-0.413 v 0 c -0.016,-0.051 -0.026,-0.104 -0.044,-0.153 v 0 c -1.162,-3.03 -2.329,-6.056 -3.484,-9.088 v 0 c -0.272,-0.716 -0.624,-1.405 -0.768,-2.169 v 0 c 0.184,-0.266 0.39,-0.465 0.71,-0.58 v 0 c 1.271,-0.458 2.533,-0.939 3.788,-1.432 v 0 c 0.312,-0.122 0.613,-0.181 0.978,-0.117 v 0 c 3.195,8.53 6.607,17.002 9.763,25.559 v 0 c -0.484,0.456 -4.787,2.089 -5.454,2.077 v 0 c -0.035,-0.084 -0.076,-0.172 -0.112,-0.262 v 0 c -1.306,-3.232 -2.515,-6.501 -3.774,-9.751 v 0 c -0.037,-0.095 -0.041,-0.216 -0.156,-0.267 v 0 c 0.026,-0.144 -0.051,-0.254 -0.121,-0.399 v 0 c -0.268,0.131 -0.523,0.252 -0.779,0.377 v 0 c -3.466,1.699 -7.041,3.126 -10.716,4.303 v 0 c -3.458,1.108 -6.977,1.976 -10.55,2.622 v 0 c -2.09,0.377 -4.19,0.675 -6.301,0.898 v 0 c -1.176,0.124 -2.355,0.221 -3.535,0.293 v 0 c -1.378,0.085 -2.757,0.134 -4.137,0.175 v 0 c -1.14,0.033 -2.279,0.04 -3.416,0.017 v 0 c -1.667,-0.034 -3.333,-0.093 -4.996,-0.21 v 0 c -2.565,-0.18 -5.122,-0.441 -7.667,-0.811 v 0 c -5.797,-0.844 -11.494,-2.127 -17.071,-3.93 v 0 c -1.561,-0.504 -3.106,-1.053 -4.634,-1.65 v 0 c -0.081,-0.031 -0.158,-0.089 -0.282,-0.056 v 0 c -0.05,0.131 -0.105,0.279 -0.159,0.427 v 0 c -1.08,3.324 -2.16,6.648 -3.239,9.971 v 0 c -0.065,0.202 -0.221,0.271 -0.407,0.296 v 0 c -0.026,0.003 -0.051,0.005 -0.076,0.005 v 0 c -0.127,0 -0.249,-0.042 -0.371,-0.082"
         id="path1152-9" />
    </clipPath>
    <clipPath
       clipPathUnits="userSpaceOnUse"
       id="clipPath1214-2">
      <path
         d="m 437.604,437.694 c -0.049,-2.106 -0.1,-4.211 -0.162,-6.316 v 0 c -0.053,-1.866 -0.524,-3.595 -1.744,-5.059 v 0 c -1.021,-1.225 -2.315,-1.979 -3.902,-2.223 v 0 c -1.934,-0.298 -3.792,-0.074 -5.534,0.842 v 0 c -2.07,1.087 -3.264,2.823 -3.669,5.111 v 0 c -0.31,1.755 -0.267,3.483 0.474,5.14 v 0 c 1.132,2.537 3.042,4.12 5.789,4.627 v 0 c 1.262,0.233 2.501,0.07 3.688,-0.433 v 0 c 0.346,-0.147 0.694,-0.288 1.047,-0.419 v 0 c 0.324,-0.119 0.561,-0.023 0.723,0.272 v 0 c 0.151,0.275 0.097,0.561 -0.151,0.769 v 0 c -0.594,0.493 -1.303,0.742 -2.035,0.932 v 0 c -1.048,0.271 -2.105,0.44 -3.192,0.264 v 0 c -1.911,-0.312 -3.548,-1.15 -4.975,-2.471 v 0 c -1.969,-1.821 -2.763,-4.105 -2.834,-6.709 v 0 c -0.034,-1.255 0.14,-2.484 0.463,-3.695 v 0 c 0.014,-0.05 0.021,-0.101 0.039,-0.183 v 0 c -0.522,0.108 -0.983,0.296 -1.421,0.53 v 0 c -1.983,1.063 -3.228,2.706 -3.81,4.869 v 0 c -0.266,0.991 -0.458,1.99 -0.332,3.025 v 0 c 0.045,0.37 0.189,0.707 0.323,1.048 v 0 c 0.097,0.24 0.193,0.481 0.236,0.74 v 0 c 0.052,0.307 -0.052,0.539 -0.311,0.671 v 0 c -0.266,0.136 -0.595,0.085 -0.788,-0.134 v 0 c -0.367,-0.418 -0.534,-0.927 -0.633,-1.461 v 0 c -0.052,-0.282 -0.084,-0.567 -0.136,-0.92 v 0 c -1.208,1.424 -1.371,3.1 -1.448,4.862 v 0 c 0.169,-0.114 0.298,-0.189 0.415,-0.28 v 0 c 1.239,-0.963 2.672,-1.202 4.188,-1.11 v 0 c 1.888,0.113 3.595,0.766 5.206,1.772 v 0 c 0.461,-0.353 0.84,-0.871 1.536,-0.862 v 0 c 0.061,0.146 0.121,0.29 0.207,0.498 v 0 c -0.203,0.184 -0.416,0.376 -0.628,0.567 v 0 c -0.601,0.543 -0.897,1.215 -0.882,2.026 v 0 c 0.004,0.215 -0.012,0.431 -0.019,0.646 v 0 c -0.263,-0.046 -0.533,-0.053 -0.785,-0.155 v 0 c -0.06,-0.508 -0.063,-1.018 -0.056,-1.548 v 0 c -0.448,-0.302 -0.928,-0.552 -1.422,-0.781 v 0 c -1.173,-0.545 -2.392,-0.91 -3.698,-0.876 v 0 c -1.304,0.033 -2.489,0.382 -3.408,1.377 v 0 c -0.064,0.039 -0.13,0.056 -0.204,0.034 v 0 c -0.526,-0.147 -1.051,-0.292 -1.576,-0.438 v 0 c 0.022,-0.609 0.03,-1.22 0.071,-1.828 v 0 c 0.073,-1.077 0.271,-2.129 0.704,-3.129 v 0 c 0.371,-0.857 0.973,-1.542 1.603,-2.208 v 0 c 0.284,-0.301 0.544,-0.599 0.592,-1.046 v 0 c 0.032,-0.317 0.138,-0.628 0.226,-0.938 v 0 c 0.682,-2.384 2.087,-4.193 4.274,-5.385 v 0 c 0.877,-0.479 1.839,-0.695 2.795,-0.931 v 0 c 0.17,-0.041 0.282,-0.118 0.381,-0.261 v 0 c 0.794,-1.142 1.82,-2.02 3.063,-2.643 v 0 c 1.687,-0.844 3.479,-1.138 5.348,-0.978 v 0 c 0.696,0.059 1.389,0.17 2.049,0.412 v 0 c 2.376,0.871 3.893,2.577 4.751,4.915 v 0 c 0.242,0.659 0.365,1.35 0.456,2.057 v 0 c 0.078,-0.056 0.077,-0.121 0.083,-0.182 v 0 c 0.105,-1.064 0.402,-2.071 0.89,-3.023 v 0 c 0.959,-1.876 2.405,-3.203 4.421,-3.848 v 0 c 1.374,-0.439 2.791,-0.539 4.225,-0.351 v 0 c 2.419,0.319 4.435,1.356 5.937,3.314 v 0 c 0.074,0.098 0.156,0.166 0.281,0.189 v 0 c 0.272,0.051 0.543,0.115 0.816,0.163 v 0 c 1.721,0.309 3.199,1.085 4.439,2.31 v 0 c 1.087,1.075 1.862,2.36 2.23,3.837 v 0 c 0.218,0.876 0.631,1.557 1.29,2.15 v 0 c 0.784,0.702 1.286,1.599 1.611,2.599 v 0 c 0.402,1.24 0.518,2.522 0.588,3.812 v 0 c -0.601,0.23 -1.195,0.477 -1.833,0.587 v 0 c -1.196,-1.112 -2.645,-1.319 -4.181,-1.113 v 0 c -1.576,0.21 -2.959,0.913 -4.235,1.767 v 0 1.578 c -0.266,0.051 -0.526,0.145 -0.803,0.136 v 0 c -0.033,-0.32 -0.076,-0.64 -0.098,-0.961 v 0 c -0.037,-0.55 -0.295,-0.981 -0.67,-1.367 v 0 c -0.276,-0.282 -0.525,-0.59 -0.817,-0.861 v 0 c -0.03,-0.127 0.049,-0.266 0.109,-0.424 v 0 c 0.675,-0.047 1.076,0.431 1.559,0.794 v 0 c 0.538,-0.353 1.091,-0.696 1.678,-0.979 v 0 c 1.683,-0.812 3.44,-1.206 5.316,-0.998 v 0 c 0.718,0.079 1.374,0.316 1.986,0.69 v 0 c 0.25,0.153 0.502,0.303 0.763,0.461 v 0 c 0.039,-1.397 -0.466,-3.718 -1.601,-4.728 v 0 c -0.033,0.302 -0.058,0.58 -0.094,0.856 v 0 c -0.068,0.521 -0.207,1.018 -0.521,1.45 v 0 c -0.206,0.281 -0.526,0.373 -0.83,0.239 v 0 c -0.284,-0.124 -0.393,-0.371 -0.333,-0.734 v 0 c 0.052,-0.312 0.165,-0.604 0.275,-0.897 v 0 c 0.33,-0.878 0.247,-1.767 0.058,-2.651 v 0 c -0.319,-1.488 -0.85,-2.885 -1.877,-4.048 v 0 c -1.001,-1.131 -2.215,-1.919 -3.688,-2.287 v 0 c -0.058,-0.014 -0.115,-0.049 -0.202,-0.005 v 0 c 0.156,0.525 0.308,1.055 0.414,1.597 v 0 c 0.361,1.831 0.358,3.652 -0.16,5.456 v 0 c -0.681,2.379 -2.255,4.056 -4.321,5.274 v 0 c -1.292,0.76 -2.723,1.198 -4.263,1.096 v 0 c -1.004,-0.066 -1.991,-0.241 -2.928,-0.632 v 0 c -0.282,-0.118 -0.548,-0.266 -0.787,-0.458 v 0 c -0.253,-0.202 -0.308,-0.483 -0.159,-0.766 v 0 c 0.154,-0.292 0.388,-0.385 0.717,-0.286 v 0 c 0.677,0.205 1.316,0.519 2.016,0.654 v 0 c 2.32,0.445 4.373,-0.161 6.118,-1.693 v 0 c 2.091,-1.836 2.939,-4.2 2.679,-6.964 v 0 c -0.11,-1.189 -0.374,-2.34 -0.953,-3.391 v 0 c -1.063,-1.927 -2.743,-3.034 -4.852,-3.513 v 0 c -1.663,-0.378 -3.333,-0.334 -4.923,0.289 v 0 c -2.228,0.873 -3.479,2.618 -4.04,4.894 v 0 c -0.258,1.045 -0.235,2.116 -0.21,3.184 v 0 c 0.02,0.922 0.039,1.846 0.053,2.769 v 0 c 0.037,2.412 0.07,4.824 0.109,7.236 v 0 c 0.017,1.085 0.045,2.168 0.067,3.253 v 0 c -0.686,0.003 -1.372,0.004 -2.059,0.006 v 0 c -0.06,-2.688 -0.118,-5.377 -0.182,-8.066"
         id="path1212-7" />
    </clipPath>
    <clipPath
       clipPathUnits="userSpaceOnUse"
       id="clipPath1424-9">
      <path
         d="m 487.493,418.567 c -1.92,-4.998 -3.839,-9.993 -5.764,-15.003 v 0 h 3.145 c 0.333,0.907 0.662,1.803 0.987,2.689 v 0 h 6.376 c 0.334,-0.907 0.661,-1.803 0.985,-2.686 v 0 h 3.146 c -1.933,5.013 -3.859,10.006 -5.785,15 v 0 z m 1.556,-3.636 c 0.751,-2.038 1.476,-4.006 2.208,-5.989 v 0 h -4.416 c 0.731,1.983 1.457,3.951 2.208,5.989"
         id="path1422-6" />
    </clipPath>
    <clipPath
       clipPathUnits="userSpaceOnUse"
       id="clipPath1484-9">
      <path
         d="m 473.788,418.674 c -2.263,-0.39 -4.054,-1.521 -5.26,-3.504 v 0 c -0.83,-1.365 -1.14,-2.868 -1.078,-4.451 v 0 c 0.086,-2.146 0.847,-3.998 2.463,-5.45 v 0 c 1.35,-1.213 2.965,-1.817 4.764,-1.921 v 0 c 1.69,-0.099 3.279,0.236 4.699,1.21 v 0 c 0.787,0.538 1.412,1.224 1.917,2.038 v 0 c -0.718,0.496 -1.418,0.979 -2.126,1.468 v 0 c -0.85,-1.196 -1.996,-1.854 -3.442,-1.954 v 0 c -1.619,-0.112 -3.036,0.357 -4.124,1.6 v 0 c -0.998,1.14 -1.299,2.504 -1.147,3.984 v 0 c 0.381,3.688 4.05,5.142 6.853,3.92 v 0 c 0.766,-0.334 1.366,-0.872 1.862,-1.552 v 0 c 0.713,0.492 1.412,0.975 2.125,1.467 v 0 c -0.771,1.229 -1.785,2.133 -3.101,2.684 v 0 c -0.958,0.402 -1.943,0.589 -2.944,0.589 v 0 c -0.484,0 -0.971,-0.044 -1.461,-0.128"
         id="path1482-9" />
    </clipPath>
    <clipPath
       clipPathUnits="userSpaceOnUse"
       id="clipPath1604-9">
      <path
         d="m 462.667,403.562 h 2.871 v 15.001 h -2.871 z"
         id="path1602-7" />
    </clipPath>
    <clipPath
       clipPathUnits="userSpaceOnUse"
       id="clipPath1364-7">
      <path
         d="m 453.141,418.585 c -0.421,-0.002 -0.842,-0.004 -1.263,-0.003 v 0 c -0.492,0.002 -0.983,0 -1.488,0 v 0 -15.04 h 0.14 c 1.742,0 3.483,-10e-4 5.224,0 v 0 c 0.567,0 1.128,0.048 1.682,0.17 v 0 c 1.118,0.248 2.09,0.742 2.773,1.697 v 0 c 0.617,0.864 0.8,1.847 0.743,2.884 v 0 c -0.059,1.09 -0.441,2.039 -1.267,2.783 v 0 c -0.448,0.404 -0.977,0.669 -1.544,0.849 v 0 c 0.017,0.078 0.068,0.08 0.105,0.1 v 0 c 1.68,0.941 2.271,2.915 1.347,4.608 v 0 c -0.735,1.346 -1.975,1.882 -3.434,1.931 v 0 c -0.626,0.02 -1.252,0.026 -1.878,0.026 v 0 c -0.38,0 -0.76,-0.002 -1.14,-0.005 m 0.143,-5.831 v 3.279 c 0.638,0 1.271,0 1.904,10e-4 v 0 c 0.27,0 0.536,-0.023 0.799,-0.086 v 0 c 0.812,-0.197 1.238,-0.738 1.227,-1.56 v 0 c -0.01,-0.804 -0.496,-1.406 -1.278,-1.571 v 0 c -0.164,-0.035 -0.335,-0.058 -0.505,-0.059 v 0 c -0.353,-0.004 -0.706,-0.004 -1.063,-0.004 v 0 c -0.357,0 -0.717,0 -1.084,0 m 1.164,-2.254 c 0.68,0.014 1.358,0.03 2.028,-0.12 v 0 c 0.917,-0.203 1.456,-0.838 1.584,-1.806 v 0 c 0.122,-0.917 -0.245,-1.741 -0.961,-2.144 v 0 c -0.408,-0.229 -0.857,-0.319 -1.316,-0.328 v 0 c -0.823,-0.016 -1.648,-0.005 -2.498,-0.005 v 0 4.408 c 0.183,-0.01 0.366,-0.014 0.549,-0.014 v 0 c 0.204,0 0.409,0.005 0.614,0.009"
         id="path1362-2" />
    </clipPath>
    <clipPath
       clipPathUnits="userSpaceOnUse"
       id="clipPath1334-8">
      <path
         d="m 432.978,411.3 c -0.117,-4.722 3.418,-7.897 7.586,-7.969 v 0 c 4.301,-0.073 7.915,3.103 7.902,7.709 v 0 c 0.03,4.544 -3.434,7.661 -7.561,7.751 v 0 c -0.063,10e-4 -0.126,0.002 -0.188,0.002 v 0 c -4.265,0 -7.631,-3.144 -7.739,-7.493 m 3.012,-0.889 c -0.145,1.43 0.119,2.762 1.047,3.885 v 0 c 1.24,1.499 2.872,2.022 4.745,1.611 v 0 c 1.875,-0.41 3.031,-1.633 3.528,-3.479 v 0 c 0.119,-0.443 0.16,-0.899 0.167,-1.358 v 0 c 0.006,-2.109 -1.113,-3.883 -2.911,-4.617 v 0 c -0.624,-0.254 -1.257,-0.373 -1.872,-0.373 v 0 c -2.36,0 -4.444,1.755 -4.704,4.331"
         id="path1332-3" />
    </clipPath>
    <clipPath
       clipPathUnits="userSpaceOnUse"
       id="clipPath1394-0">
      <path
         d="m 421.298,418.572 c -0.068,0 -0.143,0.026 -0.202,-0.025 v 0 -14.976 h 2.897 v 4.934 h 2.229 c 1.033,-1.656 2.064,-3.31 3.075,-4.933 v 0 h 3.103 c -1.166,1.815 -2.316,3.606 -3.486,5.426 v 0 c 0.734,0.332 1.372,0.757 1.807,1.402 v 0 c 1.248,1.853 1.298,3.814 0.27,5.746 v 0 c -0.912,1.713 -2.524,2.375 -4.39,2.418 v 0 c -0.69,0.016 -1.381,0.022 -2.072,0.022 v 0 c -1.077,0 -2.154,-0.013 -3.231,-0.014 m 3.686,-2.66 c 0.657,0.011 1.309,0.024 1.956,-0.099 v 0 c 1.172,-0.224 1.815,-1.101 1.787,-2.382 v 0 c -0.007,-0.304 -0.043,-0.606 -0.136,-0.898 v 0 c -0.279,-0.88 -0.941,-1.289 -1.802,-1.435 v 0 c -0.246,-0.042 -0.499,-0.057 -0.749,-0.06 v 0 c -0.678,-0.008 -1.357,-0.003 -2.048,-0.003 v 0 4.876 c 0.135,-0.005 0.27,-0.007 0.406,-0.007 v 0 c 0.195,0 0.391,0.004 0.586,0.008"
         id="path1392-9" />
    </clipPath>
    <clipPath
       clipPathUnits="userSpaceOnUse"
       id="clipPath1454-1">
      <path
         d="m 407.618,418.565 c 0,-3.105 0.001,-6.183 0,-9.26 v 0 c -10e-4,-0.386 0.002,-0.772 0.054,-1.155 v 0 c 0.254,-1.868 1.12,-3.33 2.836,-4.202 v 0 c 1.171,-0.595 2.43,-0.729 3.719,-0.555 v 0 c 1.795,0.245 3.2,1.101 4.07,2.729 v 0 c 0.466,0.87 0.668,1.816 0.672,2.794 v 0 c 0.011,3.122 0.004,6.245 0.004,9.368 v 0 0.275 h -2.899 v -0.304 -8.964 c 0,-0.487 -0.039,-0.968 -0.189,-1.434 v 0 c -0.408,-1.283 -1.676,-1.992 -3.097,-1.752 v 0 c -1.113,0.187 -1.826,0.811 -2.132,1.896 v 0 c -0.117,0.416 -0.138,0.846 -0.138,1.278 v 0 c 0.001,2.997 0.001,5.994 -10e-4,8.992 v 0 c 0,0.095 0.027,0.195 -0.03,0.294 v 0 z"
         id="path1452-2" />
    </clipPath>
    <clipPath
       clipPathUnits="userSpaceOnUse"
       id="clipPath1514-6">
      <path
         d="m 397.132,418.558 v -14.993 h 8.663 v 2.662 h -5.76 v 3.57 h 4.679 v 2.644 h -4.679 v 3.478 h 5.574 v 2.639 z"
         id="path1512-4" />
    </clipPath>
    <clipPath
       clipPathUnits="userSpaceOnUse"
       id="clipPath1244-6">
      <path
         d="m 382.159,418.56 v -14.991 h 2.903 v 10.222 l 0.068,0.026 c 2.306,-3.423 4.613,-6.848 6.905,-10.251 v 0 h 2.904 v 14.988 h -2.904 v -10.227 c -0.021,-0.009 -0.043,-0.018 -0.064,-0.027 v 0 c -2.308,3.426 -4.616,6.852 -6.911,10.26 v 0 z"
         id="path1242-6" />
    </clipPath>
    <clipPath
       clipPathUnits="userSpaceOnUse"
       id="clipPath1274-2">
      <path
         d="m 390.289,446.942 c -0.546,-0.138 -1.089,-0.295 -1.615,-0.494 v 0 c -1.247,-0.473 -1.8,-1.693 -1.368,-2.951 v 0 c 0.973,-2.834 1.944,-5.666 2.917,-8.499 v 0 c 0.714,-2.08 1.443,-4.154 2.137,-6.241 v 0 c 0.353,-1.054 1.177,-1.702 2.518,-1.704 v 0 c 0.521,0.036 1.214,0.342 1.901,0.629 v 0 c 1.168,0.486 1.651,1.611 1.248,2.807 v 0 c -0.357,1.059 -0.727,2.113 -1.09,3.17 v 0 c -1.356,3.938 -2.733,7.869 -4.056,11.819 v 0 c -0.299,0.892 -1.182,1.524 -2.106,1.524 v 0 c -0.162,0 -0.325,-0.02 -0.486,-0.06"
         id="path1272-2" />
    </clipPath>
    <clipPath
       clipPathUnits="userSpaceOnUse"
       id="clipPath1304-6">
      <path
         d="m 485.081,443.101 c -1.93,-4.897 -3.883,-9.785 -5.831,-14.675 v 0 c -0.396,-0.997 -0.046,-2.1 0.872,-2.658 v 0 c 0.671,-0.406 1.415,-0.637 2.159,-0.864 v 0 c 0.117,-0.037 0.248,-0.033 0.306,-0.039 v 0 c 0.965,-0.007 1.817,0.552 2.14,1.363 v 0 c 0.848,2.123 1.697,4.247 2.543,6.372 v 0 c 0.845,2.125 1.681,4.254 2.536,6.375 v 0 c 0.281,0.696 0.635,1.362 0.821,2.094 v 0 c 0.384,1.505 -0.035,2.367 -1.467,2.985 v 0 c -0.368,0.158 -0.76,0.262 -1.129,0.42 v 0 c -0.255,0.11 -0.518,0.16 -0.778,0.16 v 0 c -0.934,0 -1.825,-0.652 -2.172,-1.533"
         id="path1302-8" />
    </clipPath>
    <clipPath
       clipPathUnits="userSpaceOnUse"
       id="clipPath1544-4">
      <path
         d="m 384.138,441.436 c -0.554,-0.144 -1.098,-0.326 -1.632,-0.531 v 0 c -1.049,-0.403 -1.714,-1.714 -1.289,-2.855 v 0 c 0.709,-1.9 1.342,-3.828 2.012,-5.742 v 0 c 0.337,-0.963 0.655,-1.933 1.036,-2.878 v 0 c 0.369,-0.918 1.22,-1.424 2.409,-1.323 v 0 c 0.49,0.06 1.226,0.306 1.934,0.632 v 0 c 0.601,0.277 1.008,0.725 1.211,1.364 v 0 c 0.176,0.561 0.077,1.1 -0.109,1.631 v 0 c -0.97,2.767 -1.942,5.534 -2.92,8.298 v 0 c -0.323,0.914 -1.156,1.478 -2.075,1.478 v 0 c -0.19,0 -0.384,-0.024 -0.577,-0.074"
         id="path1542-0" />
    </clipPath>
    <clipPath
       clipPathUnits="userSpaceOnUse"
       id="clipPath1574-9">
      <path
         d="m 490.98,437.512 c -0.62,-1.522 -1.247,-3.042 -1.863,-4.565 v 0 c -0.538,-1.325 -1.064,-2.653 -1.6,-3.978 v 0 c -0.415,-1.028 0.146,-2.313 1.131,-2.76 v 0 c 0.606,-0.272 1.235,-0.47 1.862,-0.676 v 0 c 0.218,-0.072 0.456,-0.079 0.692,-0.042 v 0 c 0.877,0.137 1.508,0.6 1.844,1.421 v 0 c 1.046,2.555 2.083,5.115 3.119,7.675 v 0 c 0.167,0.413 0.355,0.821 0.419,1.269 v 0 c 0,0.162 0,0.325 10e-4,0.488 v 0 c -0.147,0.963 -0.73,1.572 -1.598,1.927 v 0 c -0.454,0.186 -0.926,0.331 -1.394,0.479 v 0 c -0.195,0.062 -0.395,0.091 -0.596,0.091 v 0 c -0.85,0 -1.691,-0.526 -2.017,-1.329"
         id="path1572-3" />
    </clipPath>
    <clipPath
       clipPathUnits="userSpaceOnUse"
       id="clipPath1634-8">
      <path
         d="M 0,774.4 H 684.239 V 0 H 0 Z"
         id="path1632-4" />
    </clipPath>
    <clipPath
       clipPathUnits="userSpaceOnUse"
       id="clipPath1678-5">
      <path
         d="m 415.902,449.012 c -0.122,-0.368 0.01,-0.686 0.353,-0.809 v 0 c 0.404,-0.144 0.813,-0.271 1.221,-0.405 v 0 c 0.086,-0.003 0.166,-0.025 0.261,-0.007 v 0 c 0.831,0.167 1.667,0.314 2.498,0.481 v 0 c 0.356,0.071 0.728,0.07 1.065,0.229 v 0 c -0.721,0.079 -1.445,0.128 -2.158,0.261 v 0 c -0.854,0.159 -1.68,0.429 -2.518,0.649 v 0 c -0.078,0.021 -0.15,0.032 -0.217,0.032 v 0 c -0.247,-10e-4 -0.411,-0.145 -0.505,-0.431"
         id="path1676-0" />
    </clipPath>
    <clipPath
       clipPathUnits="userSpaceOnUse"
       id="clipPath1708-0">
      <path
         d="m 461.169,448.783 c -0.838,-0.22 -1.674,-0.387 -2.528,-0.546 v 0 c -0.763,-0.093 -1.452,-0.186 -2.167,-0.177 v 0 c 0.393,-0.144 1.937,-0.548 2.314,-0.648 v 0 c 0.832,-0.202 0.539,-0.117 1.37,-0.283 v 0 c 0.106,0.03 0.974,0.28 1.378,0.424 v 0 c 0.343,0.122 0.477,0.462 0.356,0.831 v 0 c -0.095,0.287 -0.26,0.43 -0.507,0.43 v 0 c -0.066,0 -0.138,-0.01 -0.216,-0.031"
         id="path1706-4" />
    </clipPath>
  </defs>
  <g
     id="layer1"
     transform="translate(-83.275888,-98.204363)">
    <g
       id="g1178"
       transform="matrix(0.60544988,0,0,-0.60544988,-147.45314,386.209)">
      <g
         id="g1180"
         clip-path="url(#clipPath1184-9)">
        <g
           id="g1186">
          <g
             id="g1188">
            <path
               d="m 439.334,471.666 c -0.761,2.441 -2.421,3.784 -4.912,3.944 v 0 c -2.785,0.179 -4.809,-1.06 -5.984,-3.608 v 0 c -3.52,-0.071 -6.496,-1.089 -8.071,-4.542 v 0 c -1.724,-0.508 -3.177,-1.4 -4.174,-2.868 v 0 c -1.016,-1.499 -1.117,-3.22 -0.911,-4.985 v 0 c -1.157,-0.984 -2.077,-2.13 -2.601,-3.573 v 0 c -0.53,-1.464 -0.427,-2.919 0,-4.375 v 0 c -0.799,-0.883 -1.242,-1.913 -1.483,-3.034 v 0 c -0.17,-0.791 -0.265,-1.591 -0.132,-2.401 v 0 c 0.36,0.082 0.72,0.164 1.068,0.293 v 0 c -0.072,1.552 0.25,2.99 1.233,4.235 v 0 c 0.005,0.008 0.009,0.016 0.015,0.022 v 0 c 0.377,0.407 0.48,0.848 0.314,1.402 v 0 c -0.214,0.711 -0.33,1.447 -0.268,2.203 v 0 c 0.103,1.246 0.968,2.976 1.887,3.714 v 0 c 0.236,-0.358 0.466,-0.721 0.71,-1.074 v 0 c 1.108,-1.605 2.656,-2.504 4.563,-2.794 v 0 c 1.201,-0.182 2.408,-0.221 3.615,-0.018 v 0 c 0.444,0.075 0.822,-0.019 1.18,-0.351 v 0 c 1.008,-0.935 2.235,-1.4 3.596,-1.518 v 0 c 0.471,-0.041 0.813,0.376 0.72,0.84 v 0 c -0.041,0.196 -0.192,0.271 -0.348,0.342 v 0 c -0.387,0.176 -0.813,0.203 -1.218,0.32 v 0 c -1.584,0.457 -2.735,1.357 -3.095,3.049 v 0 c -0.197,0.927 -0.143,1.853 0.046,2.796 v 0 c 0.634,0.13 1.269,0.275 1.842,0.647 v 0 c -0.075,0.227 -0.148,0.443 -0.223,0.671 v 0 c -0.524,-0.132 -1.011,-0.316 -1.525,-0.399 v 0 c -0.68,-0.111 -1.303,-0.042 -1.808,0.495 v 0 c -0.146,0.155 -0.321,0.287 -0.525,0.375 v 0 c -0.234,-0.027 -0.352,-0.224 -0.529,-0.354 v 0 c 0.262,-0.633 0.93,-0.83 1.362,-1.296 v 0 c -0.099,-1.434 -0.149,-2.875 0.324,-4.298 v 0 c -1.776,-0.221 -3.502,-0.197 -5.115,0.625 v 0 c -1.588,0.81 -2.383,2.16 -2.546,3.915 v 0 c -0.089,0.947 -0.037,1.878 0.24,2.793 v 0 c 0.431,1.426 1.479,2.289 2.711,2.981 v 0 c 0.582,0.327 1.212,0.53 1.885,0.649 v 0 c 0.545,1.492 1.432,2.697 2.873,3.441 v 0 c 1.192,0.618 2.462,0.893 3.825,0.927 v 0 c 0,-0.558 0.007,-1.093 -10e-4,-1.628 v 0 c -0.05,-3.431 2.468,-5.476 5.049,-6.013 v 0 c 0.209,-0.044 0.422,-0.074 0.646,-0.114 v 0 c 0.225,-0.584 0.456,-1.167 0.936,-1.631 v 0 c 0.159,0.134 0.332,0.243 0.435,0.44 v 0 c -0.013,0.232 -0.105,0.449 -0.209,0.652 v 0 c -0.496,0.961 -0.469,1.911 0.032,2.858 v 0 c 0.037,0.07 0.067,0.145 0.097,0.22 v 0 c 0.007,0.016 0.007,0.035 0.011,0.06 v 0 c -0.067,0.108 -0.186,0.154 -0.293,0.215 v 0 c -0.191,0.108 -0.352,0.077 -0.497,-0.098 v 0 c -0.228,-0.276 -0.353,-0.599 -0.461,-0.933 v 0 c -0.046,-0.144 -0.098,-0.284 -0.152,-0.439 v 0 c -0.961,0.096 -1.797,0.449 -2.528,1.049 v 0 c -1.073,0.879 -1.635,2.017 -1.72,3.398 v 0 c -0.058,0.927 -0.055,1.852 0.297,2.729 v 0 c 0.659,1.642 1.92,2.543 3.632,2.837 v 0 c 1.055,0.181 2.082,0.046 3.03,-0.462 v 0 c 1.486,-0.798 2.156,-2.11 2.19,-3.748 v 0 c 0.038,-1.883 -0.071,-3.765 -0.114,-5.647 v 0 c -0.03,-1.309 -0.074,-2.618 -0.084,-3.926 v 0 c -0.009,-1.334 -0.368,-2.578 -0.867,-3.799 v 0 c -0.531,-1.3 -1.169,-2.537 -2.019,-3.659 v 0 c -1.045,-1.38 -2.424,-2.351 -3.917,-3.178 v 0 c -0.265,-0.148 -0.544,-0.27 -0.818,-0.405 v 0 c 0.361,-0.103 0.72,0.02 1.079,0.022 v 0 c 0.526,0.004 1.05,0.061 1.574,0.092 v 0 c 0.09,0.005 0.177,0.007 0.258,0.051 v 0 c 1.912,1.313 3.328,3.07 4.488,5.06 v 0 c 0.171,-1.682 -0.034,-3.338 -0.064,-4.996 v 0 c 0.68,-0.002 1.362,-0.003 2.043,-0.006 v 0 c 10e-4,1.238 -0.009,2.476 0.006,3.713 v 0 c 0.007,0.51 0.067,1.019 0.102,1.528 v 0 c 0.01,0.01 0.02,0.02 0.031,0.031 v 0 c 0.006,-0.014 0.013,-0.026 0.02,-0.039 v 0 c 0.51,-0.861 0.996,-1.738 1.591,-2.546 v 0 c 0.812,-1.104 1.801,-2.033 2.895,-2.853 v 0 c 0.376,-0.127 0.773,-0.091 1.158,-0.138 v 0 c 0.512,-0.063 1.028,-0.09 1.542,-0.133 v 0 c 0.069,-0.005 0.143,-0.02 0.2,0.043 v 0 c -3.168,1.508 -5.353,3.901 -6.52,7.218 v 0 c -0.417,1.187 -0.847,2.368 -0.849,3.645 v 0 c -10e-4,1.148 0.033,2.295 0.052,3.443 v 0 c 0.016,0.968 0.031,1.937 0.052,2.904 v 0 c 0.028,1.282 0.043,2.564 0.094,3.846 v 0 c 0.088,2.244 1.813,3.963 4.058,4.054 v 0 c 1.835,0.073 3.338,-0.57 4.387,-2.115 v 0 c 0.634,-0.934 0.761,-1.998 0.698,-3.091 v 0 c -0.056,-0.965 -0.214,-1.909 -0.779,-2.731 v 0 c -0.887,-1.291 -2.109,-2.008 -3.693,-2.154 v 0 c -0.217,0.548 -0.252,1.175 -0.746,1.57 v 0 c -0.257,0.051 -0.424,-0.119 -0.637,-0.223 v 0 c 0.219,-0.63 0.515,-1.228 0.448,-1.919 v 0 c -0.067,-0.68 -0.487,-1.226 -0.666,-1.867 v 0 c 0.088,-0.204 0.253,-0.336 0.431,-0.476 v 0 c 0.488,0.434 0.745,0.994 0.994,1.586 v 0 c 0.711,0.073 1.423,0.206 2.098,0.485 v 0 c 1.776,0.735 3.056,1.95 3.612,3.827 v 0 c 0.284,0.963 0.259,1.969 0.301,2.962 v 0 c 0.002,0.061 0,0.123 0,0.227 v 0 c 1.464,-0.083 2.81,-0.461 4.042,-1.236 v 0 c 1.27,-0.801 2.012,-1.986 2.472,-3.398 v 0 c 0.579,-0.138 1.146,-0.33 1.672,-0.624 v 0 c 0.937,-0.525 1.77,-1.181 2.32,-2.114 v 0 c 0.638,-1.084 0.729,-2.29 0.615,-3.516 v 0 c -0.045,-0.483 -0.123,-0.962 -0.279,-1.422 v 0 c -0.543,-1.619 -1.692,-2.595 -3.304,-3.062 v 0 c -1.384,-0.4 -2.781,-0.354 -4.183,-0.118 v 0 c -0.035,0.006 -0.067,0.022 -0.114,0.037 v 0 c 0.527,1.375 0.525,2.808 0.502,4.253 v 0 c 0.424,0.459 1.129,0.612 1.415,1.27 v 0 c -0.035,0.022 -0.069,0.038 -0.095,0.061 v 0 c -0.394,0.36 -0.451,0.398 -0.824,0.037 v 0 c -0.703,-0.679 -1.494,-0.687 -2.349,-0.423 v 0 c -0.367,0.114 -0.732,0.238 -1.12,0.366 v 0 c -0.087,-0.22 -0.17,-0.433 -0.26,-0.661 v 0 c 0.552,-0.381 1.167,-0.565 1.81,-0.721 v 0 c 0.111,-0.559 0.133,-1.121 0.099,-1.684 v 0 c -0.065,-1.122 -0.355,-2.155 -1.227,-2.946 v 0 c -0.685,-0.621 -1.496,-0.969 -2.397,-1.133 v 0 c -0.317,-0.059 -0.64,-0.083 -0.945,-0.2 v 0 c -0.348,-0.133 -0.483,-0.336 -0.425,-0.644 v 0 c 0.064,-0.331 0.335,-0.581 0.654,-0.571 v 0 c 1.376,0.048 2.631,0.457 3.688,1.352 v 0 c 0.388,0.328 0.778,0.395 1.243,0.306 v 0 c 1.451,-0.28 2.91,-0.295 4.355,0.002 v 0 c 1.665,0.341 3.006,1.219 4.003,2.605 v 0 c 0.22,0.305 0.437,0.612 0.674,0.944 v 0 c 1.361,-1.605 2.068,-3.361 1.507,-5.471 v 0 c -0.09,-0.337 -0.166,-0.679 -0.266,-1.013 v 0 c -0.046,-0.152 -0.031,-0.281 0.043,-0.411 v 0 c 0.09,-0.155 0.169,-0.318 0.274,-0.461 v 0 c 0.994,-1.351 1.274,-2.873 1.1,-4.509 v 0 c 0.36,-0.123 0.722,-0.246 1.082,-0.37 v 0 c 0.305,2.069 -0.094,3.971 -1.365,5.689 v 0 c 0.48,1.422 0.636,2.865 0.174,4.341 v 0 c -0.459,1.465 -1.33,2.647 -2.451,3.687 v 0 c 0.697,4.037 -0.997,6.669 -4.764,8.076 v 0 c -0.171,0.411 -0.363,0.816 -0.593,1.202 v 0 c -0.232,0.386 -0.489,0.753 -0.799,1.079 v 0 c -1.33,1.396 -3.003,2.103 -4.873,2.413 v 0 c -0.538,0.089 -1.086,0.088 -1.597,0.16 v 0 c -0.958,2.372 -2.703,3.702 -5.202,3.846 v 0 c -0.161,0.01 -0.32,0.014 -0.475,0.014 v 0 c -2.639,0 -4.448,-1.347 -5.311,-4.021"
               style="fill:url(#linearGradient1204);stroke:none"
               id="path1206" />
          </g>
        </g>
      </g>
    </g>
    <g
       id="g1148"
       transform="matrix(0.60544988,0,0,-0.60544988,-147.45314,386.209)">
      <g
         id="g1150"
         clip-path="url(#clipPath1154-0)">
        <g
           id="g1156">
          <g
             id="g1158">
            <path
               d="m 397.608,453.375 c -1.451,-0.476 -2.906,-0.949 -4.358,-1.425 v 0 c -0.354,-0.116 -0.452,-0.266 -0.405,-0.64 v 0 c 0.016,-0.123 0.047,-0.246 0.087,-0.364 v 0 c 0.235,-0.722 0.475,-1.441 0.713,-2.162 v 0 c 2.179,-6.621 4.362,-13.242 6.536,-19.866 v 0 c 0.365,-1.109 0.768,-2.208 1.065,-3.333 v 0 c 0.303,-0.034 0.583,-0.06 0.867,0.041 v 0 c 0.691,0.243 1.387,0.472 2.081,0.704 v 0 c 0.855,0.285 1.712,0.568 2.56,0.849 v 0 c 0.06,0.175 0.051,0.334 0.034,0.495 v 0 c -0.052,0.487 -0.265,0.926 -0.416,1.384 v 0 c -0.895,2.725 -1.793,5.449 -2.685,8.175 v 0 c -0.22,0.671 -0.471,1.332 -0.644,2.016 v 0 c -0.084,0.12 -0.104,0.261 -0.153,0.422 v 0 c 0.566,0.217 1.123,0.442 1.685,0.647 v 0 c 4.772,1.741 9.66,3.064 14.642,4.046 v 0 c 2.293,0.452 4.6,0.824 6.92,1.114 v 0 c 1.52,0.19 3.042,0.348 4.572,0.452 v 0 c 1.359,0.093 2.717,0.175 4.08,0.223 v 0 c 1.983,0.07 3.965,0.074 5.946,0.015 v 0 c 2.195,-0.064 4.383,-0.221 6.568,-0.45 v 0 c 3.854,-0.404 7.662,-1.068 11.42,-2.009 v 0 c 4.924,-1.235 9.688,-2.921 14.274,-5.105 v 0 c 0.518,-0.246 1.032,-0.501 1.548,-0.752 v 0 c 0.078,-0.039 0.154,-0.085 0.23,-0.127 v 0 c -0.034,-0.159 -0.075,-0.294 -0.157,-0.413 v 0 c -0.016,-0.051 -0.026,-0.104 -0.044,-0.153 v 0 c -1.162,-3.03 -2.329,-6.056 -3.484,-9.088 v 0 c -0.272,-0.716 -0.624,-1.405 -0.768,-2.169 v 0 c 0.184,-0.266 0.39,-0.465 0.71,-0.58 v 0 c 1.271,-0.458 2.533,-0.939 3.788,-1.432 v 0 c 0.312,-0.122 0.613,-0.181 0.978,-0.117 v 0 c 3.195,8.53 6.607,17.002 9.763,25.559 v 0 c -0.484,0.456 -4.787,2.089 -5.454,2.077 v 0 c -0.035,-0.084 -0.076,-0.172 -0.112,-0.262 v 0 c -1.306,-3.232 -2.515,-6.501 -3.774,-9.751 v 0 c -0.037,-0.095 -0.041,-0.216 -0.156,-0.267 v 0 c 0.026,-0.144 -0.051,-0.254 -0.121,-0.399 v 0 c -0.268,0.131 -0.523,0.252 -0.779,0.377 v 0 c -3.466,1.699 -7.041,3.126 -10.716,4.303 v 0 c -3.458,1.108 -6.977,1.976 -10.55,2.622 v 0 c -2.09,0.377 -4.19,0.675 -6.301,0.898 v 0 c -1.176,0.124 -2.355,0.221 -3.535,0.293 v 0 c -1.378,0.085 -2.757,0.134 -4.137,0.175 v 0 c -1.14,0.033 -2.279,0.04 -3.416,0.017 v 0 c -1.667,-0.034 -3.333,-0.093 -4.996,-0.21 v 0 c -2.565,-0.18 -5.122,-0.441 -7.667,-0.811 v 0 c -5.797,-0.844 -11.494,-2.127 -17.071,-3.93 v 0 c -1.561,-0.504 -3.106,-1.053 -4.634,-1.65 v 0 c -0.081,-0.031 -0.158,-0.089 -0.282,-0.056 v 0 c -0.05,0.131 -0.105,0.279 -0.159,0.427 v 0 c -1.08,3.324 -2.16,6.648 -3.239,9.971 v 0 c -0.065,0.202 -0.221,0.271 -0.407,0.296 v 0 c -0.026,0.003 -0.051,0.005 -0.076,0.005 v 0 c -0.127,0 -0.249,-0.042 -0.371,-0.082"
               style="fill:url(#linearGradient1174);stroke:none"
               id="path1176" />
          </g>
        </g>
      </g>
    </g>
    <g
       id="g1208"
       transform="matrix(0.60544988,0,0,-0.60544988,-147.45314,386.209)">
      <g
         id="g1210"
         clip-path="url(#clipPath1214-2)">
        <g
           id="g1216">
          <g
             id="g1218">
            <path
               d="m 437.604,437.694 c -0.049,-2.106 -0.1,-4.211 -0.162,-6.316 v 0 c -0.053,-1.866 -0.524,-3.595 -1.744,-5.059 v 0 c -1.021,-1.225 -2.315,-1.979 -3.902,-2.223 v 0 c -1.934,-0.298 -3.792,-0.074 -5.534,0.842 v 0 c -2.07,1.087 -3.264,2.823 -3.669,5.111 v 0 c -0.31,1.755 -0.267,3.483 0.474,5.14 v 0 c 1.132,2.537 3.042,4.12 5.789,4.627 v 0 c 1.262,0.233 2.501,0.07 3.688,-0.433 v 0 c 0.346,-0.147 0.694,-0.288 1.047,-0.419 v 0 c 0.324,-0.119 0.561,-0.023 0.723,0.272 v 0 c 0.151,0.275 0.097,0.561 -0.151,0.769 v 0 c -0.594,0.493 -1.303,0.742 -2.035,0.932 v 0 c -1.048,0.271 -2.105,0.44 -3.192,0.264 v 0 c -1.911,-0.312 -3.548,-1.15 -4.975,-2.471 v 0 c -1.969,-1.821 -2.763,-4.105 -2.834,-6.709 v 0 c -0.034,-1.255 0.14,-2.484 0.463,-3.695 v 0 c 0.014,-0.05 0.021,-0.101 0.039,-0.183 v 0 c -0.522,0.108 -0.983,0.296 -1.421,0.53 v 0 c -1.983,1.063 -3.228,2.706 -3.81,4.869 v 0 c -0.266,0.991 -0.458,1.99 -0.332,3.025 v 0 c 0.045,0.37 0.189,0.707 0.323,1.048 v 0 c 0.097,0.24 0.193,0.481 0.236,0.74 v 0 c 0.052,0.307 -0.052,0.539 -0.311,0.671 v 0 c -0.266,0.136 -0.595,0.085 -0.788,-0.134 v 0 c -0.367,-0.418 -0.534,-0.927 -0.633,-1.461 v 0 c -0.052,-0.282 -0.084,-0.567 -0.136,-0.92 v 0 c -1.208,1.424 -1.371,3.1 -1.448,4.862 v 0 c 0.169,-0.114 0.298,-0.189 0.415,-0.28 v 0 c 1.239,-0.963 2.672,-1.202 4.188,-1.11 v 0 c 1.888,0.113 3.595,0.766 5.206,1.772 v 0 c 0.461,-0.353 0.84,-0.871 1.536,-0.862 v 0 c 0.061,0.146 0.121,0.29 0.207,0.498 v 0 c -0.203,0.184 -0.416,0.376 -0.628,0.567 v 0 c -0.601,0.543 -0.897,1.215 -0.882,2.026 v 0 c 0.004,0.215 -0.012,0.431 -0.019,0.646 v 0 c -0.263,-0.046 -0.533,-0.053 -0.785,-0.155 v 0 c -0.06,-0.508 -0.063,-1.018 -0.056,-1.548 v 0 c -0.448,-0.302 -0.928,-0.552 -1.422,-0.781 v 0 c -1.173,-0.545 -2.392,-0.91 -3.698,-0.876 v 0 c -1.304,0.033 -2.489,0.382 -3.408,1.377 v 0 c -0.064,0.039 -0.13,0.056 -0.204,0.034 v 0 c -0.526,-0.147 -1.051,-0.292 -1.576,-0.438 v 0 c 0.022,-0.609 0.03,-1.22 0.071,-1.828 v 0 c 0.073,-1.077 0.271,-2.129 0.704,-3.129 v 0 c 0.371,-0.857 0.973,-1.542 1.603,-2.208 v 0 c 0.284,-0.301 0.544,-0.599 0.592,-1.046 v 0 c 0.032,-0.317 0.138,-0.628 0.226,-0.938 v 0 c 0.682,-2.384 2.087,-4.193 4.274,-5.385 v 0 c 0.877,-0.479 1.839,-0.695 2.795,-0.931 v 0 c 0.17,-0.041 0.282,-0.118 0.381,-0.261 v 0 c 0.794,-1.142 1.82,-2.02 3.063,-2.643 v 0 c 1.687,-0.844 3.479,-1.138 5.348,-0.978 v 0 c 0.696,0.059 1.389,0.17 2.049,0.412 v 0 c 2.376,0.871 3.893,2.577 4.751,4.915 v 0 c 0.242,0.659 0.365,1.35 0.456,2.057 v 0 c 0.078,-0.056 0.077,-0.121 0.083,-0.182 v 0 c 0.105,-1.064 0.402,-2.071 0.89,-3.023 v 0 c 0.959,-1.876 2.405,-3.203 4.421,-3.848 v 0 c 1.374,-0.439 2.791,-0.539 4.225,-0.351 v 0 c 2.419,0.319 4.435,1.356 5.937,3.314 v 0 c 0.074,0.098 0.156,0.166 0.281,0.189 v 0 c 0.272,0.051 0.543,0.115 0.816,0.163 v 0 c 1.721,0.309 3.199,1.085 4.439,2.31 v 0 c 1.087,1.075 1.862,2.36 2.23,3.837 v 0 c 0.218,0.876 0.631,1.557 1.29,2.15 v 0 c 0.784,0.702 1.286,1.599 1.611,2.599 v 0 c 0.402,1.24 0.518,2.522 0.588,3.812 v 0 c -0.601,0.23 -1.195,0.477 -1.833,0.587 v 0 c -1.196,-1.112 -2.645,-1.319 -4.181,-1.113 v 0 c -1.576,0.21 -2.959,0.913 -4.235,1.767 v 0 1.578 c -0.266,0.051 -0.526,0.145 -0.803,0.136 v 0 c -0.033,-0.32 -0.076,-0.64 -0.098,-0.961 v 0 c -0.037,-0.55 -0.295,-0.981 -0.67,-1.367 v 0 c -0.276,-0.282 -0.525,-0.59 -0.817,-0.861 v 0 c -0.03,-0.127 0.049,-0.266 0.109,-0.424 v 0 c 0.675,-0.047 1.076,0.431 1.559,0.794 v 0 c 0.538,-0.353 1.091,-0.696 1.678,-0.979 v 0 c 1.683,-0.812 3.44,-1.206 5.316,-0.998 v 0 c 0.718,0.079 1.374,0.316 1.986,0.69 v 0 c 0.25,0.153 0.502,0.303 0.763,0.461 v 0 c 0.039,-1.397 -0.466,-3.718 -1.601,-4.728 v 0 c -0.033,0.302 -0.058,0.58 -0.094,0.856 v 0 c -0.068,0.521 -0.207,1.018 -0.521,1.45 v 0 c -0.206,0.281 -0.526,0.373 -0.83,0.239 v 0 c -0.284,-0.124 -0.393,-0.371 -0.333,-0.734 v 0 c 0.052,-0.312 0.165,-0.604 0.275,-0.897 v 0 c 0.33,-0.878 0.247,-1.767 0.058,-2.651 v 0 c -0.319,-1.488 -0.85,-2.885 -1.877,-4.048 v 0 c -1.001,-1.131 -2.215,-1.919 -3.688,-2.287 v 0 c -0.058,-0.014 -0.115,-0.049 -0.202,-0.005 v 0 c 0.156,0.525 0.308,1.055 0.414,1.597 v 0 c 0.361,1.831 0.358,3.652 -0.16,5.456 v 0 c -0.681,2.379 -2.255,4.056 -4.321,5.274 v 0 c -1.292,0.76 -2.723,1.198 -4.263,1.096 v 0 c -1.004,-0.066 -1.991,-0.241 -2.928,-0.632 v 0 c -0.282,-0.118 -0.548,-0.266 -0.787,-0.458 v 0 c -0.253,-0.202 -0.308,-0.483 -0.159,-0.766 v 0 c 0.154,-0.292 0.388,-0.385 0.717,-0.286 v 0 c 0.677,0.205 1.316,0.519 2.016,0.654 v 0 c 2.32,0.445 4.373,-0.161 6.118,-1.693 v 0 c 2.091,-1.836 2.939,-4.2 2.679,-6.964 v 0 c -0.11,-1.189 -0.374,-2.34 -0.953,-3.391 v 0 c -1.063,-1.927 -2.743,-3.034 -4.852,-3.513 v 0 c -1.663,-0.378 -3.333,-0.334 -4.923,0.289 v 0 c -2.228,0.873 -3.479,2.618 -4.04,4.894 v 0 c -0.258,1.045 -0.235,2.116 -0.21,3.184 v 0 c 0.02,0.922 0.039,1.846 0.053,2.769 v 0 c 0.037,2.412 0.07,4.824 0.109,7.236 v 0 c 0.017,1.085 0.045,2.168 0.067,3.253 v 0 c -0.686,0.003 -1.372,0.004 -2.059,0.006 v 0 c -0.06,-2.688 -0.118,-5.377 -0.182,-8.066"
               style="fill:url(#linearGradient1234);stroke:none"
               id="path1236" />
          </g>
        </g>
      </g>
    </g>
    <g
       id="g1418"
       transform="matrix(0.60544988,0,0,-0.60544988,-147.45314,386.209)">
      <g
         id="g1420"
         clip-path="url(#clipPath1424-9)">
        <g
           id="g1426">
          <g
             id="g1428">
            <path
               d="m 487.493,418.567 c -1.92,-4.998 -3.839,-9.993 -5.764,-15.003 v 0 h 3.145 c 0.333,0.907 0.662,1.803 0.987,2.689 v 0 h 6.376 c 0.334,-0.907 0.661,-1.803 0.985,-2.686 v 0 h 3.146 c -1.933,5.013 -3.859,10.006 -5.785,15 v 0 z m 1.556,-3.636 c 0.751,-2.038 1.476,-4.006 2.208,-5.989 v 0 h -4.416 c 0.731,1.983 1.457,3.951 2.208,5.989"
               style="fill:url(#linearGradient1444);stroke:none"
               id="path1446" />
          </g>
        </g>
      </g>
    </g>
    <g
       id="g1478"
       transform="matrix(0.60544988,0,0,-0.60544988,-147.45314,386.209)">
      <g
         id="g1480"
         clip-path="url(#clipPath1484-9)">
        <g
           id="g1486">
          <g
             id="g1488">
            <path
               d="m 473.788,418.674 c -2.263,-0.39 -4.054,-1.521 -5.26,-3.504 v 0 c -0.83,-1.365 -1.14,-2.868 -1.078,-4.451 v 0 c 0.086,-2.146 0.847,-3.998 2.463,-5.45 v 0 c 1.35,-1.213 2.965,-1.817 4.764,-1.921 v 0 c 1.69,-0.099 3.279,0.236 4.699,1.21 v 0 c 0.787,0.538 1.412,1.224 1.917,2.038 v 0 c -0.718,0.496 -1.418,0.979 -2.126,1.468 v 0 c -0.85,-1.196 -1.996,-1.854 -3.442,-1.954 v 0 c -1.619,-0.112 -3.036,0.357 -4.124,1.6 v 0 c -0.998,1.14 -1.299,2.504 -1.147,3.984 v 0 c 0.381,3.688 4.05,5.142 6.853,3.92 v 0 c 0.766,-0.334 1.366,-0.872 1.862,-1.552 v 0 c 0.713,0.492 1.412,0.975 2.125,1.467 v 0 c -0.771,1.229 -1.785,2.133 -3.101,2.684 v 0 c -0.958,0.402 -1.943,0.589 -2.944,0.589 v 0 c -0.484,0 -0.971,-0.044 -1.461,-0.128"
               style="fill:url(#linearGradient1504);stroke:none"
               id="path1506" />
          </g>
        </g>
      </g>
    </g>
    <g
       id="g1598"
       transform="matrix(0.60544988,0,0,-0.60544988,-147.45314,386.209)">
      <g
         id="g1600"
         clip-path="url(#clipPath1604-9)">
        <g
           id="g1606">
          <g
             id="g1608">
            <path
               d="m 462.667,403.562 h 2.871 v 15.001 h -2.871 z"
               style="fill:url(#linearGradient1624);stroke:none"
               id="path1626" />
          </g>
        </g>
      </g>
    </g>
    <g
       id="g1358"
       transform="matrix(0.60544988,0,0,-0.60544988,-147.45314,386.209)">
      <g
         id="g1360"
         clip-path="url(#clipPath1364-7)">
        <g
           id="g1366">
          <g
             id="g1368">
            <path
               d="m 453.141,418.585 c -0.421,-0.002 -0.842,-0.004 -1.263,-0.003 v 0 c -0.492,0.002 -0.983,0 -1.488,0 v 0 -15.04 h 0.14 c 1.742,0 3.483,-10e-4 5.224,0 v 0 c 0.567,0 1.128,0.048 1.682,0.17 v 0 c 1.118,0.248 2.09,0.742 2.773,1.697 v 0 c 0.617,0.864 0.8,1.847 0.743,2.884 v 0 c -0.059,1.09 -0.441,2.039 -1.267,2.783 v 0 c -0.448,0.404 -0.977,0.669 -1.544,0.849 v 0 c 0.017,0.078 0.068,0.08 0.105,0.1 v 0 c 1.68,0.941 2.271,2.915 1.347,4.608 v 0 c -0.735,1.346 -1.975,1.882 -3.434,1.931 v 0 c -0.626,0.02 -1.252,0.026 -1.878,0.026 v 0 c -0.38,0 -0.76,-0.002 -1.14,-0.005 m 0.143,-5.831 v 3.279 c 0.638,0 1.271,0 1.904,10e-4 v 0 c 0.27,0 0.536,-0.023 0.799,-0.086 v 0 c 0.812,-0.197 1.238,-0.738 1.227,-1.56 v 0 c -0.01,-0.804 -0.496,-1.406 -1.278,-1.571 v 0 c -0.164,-0.035 -0.335,-0.058 -0.505,-0.059 v 0 c -0.353,-0.004 -0.706,-0.004 -1.063,-0.004 v 0 c -0.357,0 -0.717,0 -1.084,0 m 1.164,-2.254 c 0.68,0.014 1.358,0.03 2.028,-0.12 v 0 c 0.917,-0.203 1.456,-0.838 1.584,-1.806 v 0 c 0.122,-0.917 -0.245,-1.741 -0.961,-2.144 v 0 c -0.408,-0.229 -0.857,-0.319 -1.316,-0.328 v 0 c -0.823,-0.016 -1.648,-0.005 -2.498,-0.005 v 0 4.408 c 0.183,-0.01 0.366,-0.014 0.549,-0.014 v 0 c 0.204,0 0.409,0.005 0.614,0.009"
               style="fill:url(#linearGradient1384);stroke:none"
               id="path1386" />
          </g>
        </g>
      </g>
    </g>
    <g
       id="g1328"
       transform="matrix(0.60544988,0,0,-0.60544988,-147.45314,386.209)">
      <g
         id="g1330"
         clip-path="url(#clipPath1334-8)">
        <g
           id="g1336">
          <g
             id="g1338">
            <path
               d="m 432.978,411.3 c -0.117,-4.722 3.418,-7.897 7.586,-7.969 v 0 c 4.301,-0.073 7.915,3.103 7.902,7.709 v 0 c 0.03,4.544 -3.434,7.661 -7.561,7.751 v 0 c -0.063,10e-4 -0.126,0.002 -0.188,0.002 v 0 c -4.265,0 -7.631,-3.144 -7.739,-7.493 m 3.012,-0.889 c -0.145,1.43 0.119,2.762 1.047,3.885 v 0 c 1.24,1.499 2.872,2.022 4.745,1.611 v 0 c 1.875,-0.41 3.031,-1.633 3.528,-3.479 v 0 c 0.119,-0.443 0.16,-0.899 0.167,-1.358 v 0 c 0.006,-2.109 -1.113,-3.883 -2.911,-4.617 v 0 c -0.624,-0.254 -1.257,-0.373 -1.872,-0.373 v 0 c -2.36,0 -4.444,1.755 -4.704,4.331"
               style="fill:url(#linearGradient1354);stroke:none"
               id="path1356" />
          </g>
        </g>
      </g>
    </g>
    <g
       id="g1388"
       transform="matrix(0.60544988,0,0,-0.60544988,-147.45314,386.209)">
      <g
         id="g1390"
         clip-path="url(#clipPath1394-0)">
        <g
           id="g1396">
          <g
             id="g1398">
            <path
               d="m 421.298,418.572 c -0.068,0 -0.143,0.026 -0.202,-0.025 v 0 -14.976 h 2.897 v 4.934 h 2.229 c 1.033,-1.656 2.064,-3.31 3.075,-4.933 v 0 h 3.103 c -1.166,1.815 -2.316,3.606 -3.486,5.426 v 0 c 0.734,0.332 1.372,0.757 1.807,1.402 v 0 c 1.248,1.853 1.298,3.814 0.27,5.746 v 0 c -0.912,1.713 -2.524,2.375 -4.39,2.418 v 0 c -0.69,0.016 -1.381,0.022 -2.072,0.022 v 0 c -1.077,0 -2.154,-0.013 -3.231,-0.014 m 3.686,-2.66 c 0.657,0.011 1.309,0.024 1.956,-0.099 v 0 c 1.172,-0.224 1.815,-1.101 1.787,-2.382 v 0 c -0.007,-0.304 -0.043,-0.606 -0.136,-0.898 v 0 c -0.279,-0.88 -0.941,-1.289 -1.802,-1.435 v 0 c -0.246,-0.042 -0.499,-0.057 -0.749,-0.06 v 0 c -0.678,-0.008 -1.357,-0.003 -2.048,-0.003 v 0 4.876 c 0.135,-0.005 0.27,-0.007 0.406,-0.007 v 0 c 0.195,0 0.391,0.004 0.586,0.008"
               style="fill:url(#linearGradient1414);stroke:none"
               id="path1416" />
          </g>
        </g>
      </g>
    </g>
    <g
       id="g1448"
       transform="matrix(0.60544988,0,0,-0.60544988,-147.45314,386.209)">
      <g
         id="g1450"
         clip-path="url(#clipPath1454-1)">
        <g
           id="g1456">
          <g
             id="g1458">
            <path
               d="m 407.618,418.565 c 0,-3.105 0.001,-6.183 0,-9.26 v 0 c -10e-4,-0.386 0.002,-0.772 0.054,-1.155 v 0 c 0.254,-1.868 1.12,-3.33 2.836,-4.202 v 0 c 1.171,-0.595 2.43,-0.729 3.719,-0.555 v 0 c 1.795,0.245 3.2,1.101 4.07,2.729 v 0 c 0.466,0.87 0.668,1.816 0.672,2.794 v 0 c 0.011,3.122 0.004,6.245 0.004,9.368 v 0 0.275 h -2.899 v -0.304 -8.964 c 0,-0.487 -0.039,-0.968 -0.189,-1.434 v 0 c -0.408,-1.283 -1.676,-1.992 -3.097,-1.752 v 0 c -1.113,0.187 -1.826,0.811 -2.132,1.896 v 0 c -0.117,0.416 -0.138,0.846 -0.138,1.278 v 0 c 0.001,2.997 0.001,5.994 -10e-4,8.992 v 0 c 0,0.095 0.027,0.195 -0.03,0.294 v 0 z"
               style="fill:url(#linearGradient1474);stroke:none"
               id="path1476" />
          </g>
        </g>
      </g>
    </g>
    <g
       id="g1508"
       transform="matrix(0.60544988,0,0,-0.60544988,-147.45314,386.209)">
      <g
         id="g1510"
         clip-path="url(#clipPath1514-6)">
        <g
           id="g1516">
          <g
             id="g1518">
            <path
               d="m 397.132,418.558 v -14.993 h 8.663 v 2.662 h -5.76 v 3.57 h 4.679 v 2.644 h -4.679 v 3.478 h 5.574 v 2.639 z"
               style="fill:url(#linearGradient1534);stroke:none"
               id="path1536" />
          </g>
        </g>
      </g>
    </g>
    <g
       id="g1238"
       transform="matrix(0.60544988,0,0,-0.60544988,-147.45314,386.209)">
      <g
         id="g1240"
         clip-path="url(#clipPath1244-6)">
        <g
           id="g1246">
          <g
             id="g1248">
            <path
               d="m 382.159,418.56 v -14.991 h 2.903 v 10.222 l 0.068,0.026 c 2.306,-3.423 4.613,-6.848 6.905,-10.251 v 0 h 2.904 v 14.988 h -2.904 v -10.227 c -0.021,-0.009 -0.043,-0.018 -0.064,-0.027 v 0 c -2.308,3.426 -4.616,6.852 -6.911,10.26 v 0 z"
               style="fill:url(#linearGradient1264);stroke:none"
               id="path1266" />
          </g>
        </g>
      </g>
    </g>
    <g
       id="g1268"
       transform="matrix(0.60544988,0,0,-0.60544988,-147.45314,386.209)">
      <g
         id="g1270"
         clip-path="url(#clipPath1274-2)">
        <g
           id="g1276">
          <g
             id="g1278">
            <path
               d="m 390.289,446.942 c -0.546,-0.138 -1.089,-0.295 -1.615,-0.494 v 0 c -1.247,-0.473 -1.8,-1.693 -1.368,-2.951 v 0 c 0.973,-2.834 1.944,-5.666 2.917,-8.499 v 0 c 0.714,-2.08 1.443,-4.154 2.137,-6.241 v 0 c 0.353,-1.054 1.177,-1.702 2.518,-1.704 v 0 c 0.521,0.036 1.214,0.342 1.901,0.629 v 0 c 1.168,0.486 1.651,1.611 1.248,2.807 v 0 c -0.357,1.059 -0.727,2.113 -1.09,3.17 v 0 c -1.356,3.938 -2.733,7.869 -4.056,11.819 v 0 c -0.299,0.892 -1.182,1.524 -2.106,1.524 v 0 c -0.162,0 -0.325,-0.02 -0.486,-0.06"
               style="fill:url(#linearGradient1294);stroke:none"
               id="path1296" />
          </g>
        </g>
      </g>
    </g>
    <g
       id="g1298"
       transform="matrix(0.60544988,0,0,-0.60544988,-147.45314,386.209)">
      <g
         id="g1300"
         clip-path="url(#clipPath1304-6)">
        <g
           id="g1306">
          <g
             id="g1308">
            <path
               d="m 485.081,443.101 c -1.93,-4.897 -3.883,-9.785 -5.831,-14.675 v 0 c -0.396,-0.997 -0.046,-2.1 0.872,-2.658 v 0 c 0.671,-0.406 1.415,-0.637 2.159,-0.864 v 0 c 0.117,-0.037 0.248,-0.033 0.306,-0.039 v 0 c 0.965,-0.007 1.817,0.552 2.14,1.363 v 0 c 0.848,2.123 1.697,4.247 2.543,6.372 v 0 c 0.845,2.125 1.681,4.254 2.536,6.375 v 0 c 0.281,0.696 0.635,1.362 0.821,2.094 v 0 c 0.384,1.505 -0.035,2.367 -1.467,2.985 v 0 c -0.368,0.158 -0.76,0.262 -1.129,0.42 v 0 c -0.255,0.11 -0.518,0.16 -0.778,0.16 v 0 c -0.934,0 -1.825,-0.652 -2.172,-1.533"
               style="fill:url(#linearGradient1324);stroke:none"
               id="path1326" />
          </g>
        </g>
      </g>
    </g>
    <g
       id="g1538"
       transform="matrix(0.60544988,0,0,-0.60544988,-147.45314,386.209)">
      <g
         id="g1540"
         clip-path="url(#clipPath1544-4)">
        <g
           id="g1546">
          <g
             id="g1548">
            <path
               d="m 384.138,441.436 c -0.554,-0.144 -1.098,-0.326 -1.632,-0.531 v 0 c -1.049,-0.403 -1.714,-1.714 -1.289,-2.855 v 0 c 0.709,-1.9 1.342,-3.828 2.012,-5.742 v 0 c 0.337,-0.963 0.655,-1.933 1.036,-2.878 v 0 c 0.369,-0.918 1.22,-1.424 2.409,-1.323 v 0 c 0.49,0.06 1.226,0.306 1.934,0.632 v 0 c 0.601,0.277 1.008,0.725 1.211,1.364 v 0 c 0.176,0.561 0.077,1.1 -0.109,1.631 v 0 c -0.97,2.767 -1.942,5.534 -2.92,8.298 v 0 c -0.323,0.914 -1.156,1.478 -2.075,1.478 v 0 c -0.19,0 -0.384,-0.024 -0.577,-0.074"
               style="fill:url(#linearGradient1564);stroke:none"
               id="path1566" />
          </g>
        </g>
      </g>
    </g>
    <g
       id="g1568"
       transform="matrix(0.60544988,0,0,-0.60544988,-147.45314,386.209)">
      <g
         id="g1570"
         clip-path="url(#clipPath1574-9)">
        <g
           id="g1576">
          <g
             id="g1578">
            <path
               d="m 490.98,437.512 c -0.62,-1.522 -1.247,-3.042 -1.863,-4.565 v 0 c -0.538,-1.325 -1.064,-2.653 -1.6,-3.978 v 0 c -0.415,-1.028 0.146,-2.313 1.131,-2.76 v 0 c 0.606,-0.272 1.235,-0.47 1.862,-0.676 v 0 c 0.218,-0.072 0.456,-0.079 0.692,-0.042 v 0 c 0.877,0.137 1.508,0.6 1.844,1.421 v 0 c 1.046,2.555 2.083,5.115 3.119,7.675 v 0 c 0.167,0.413 0.355,0.821 0.419,1.269 v 0 c 0,0.162 0,0.325 10e-4,0.488 v 0 c -0.147,0.963 -0.73,1.572 -1.598,1.927 v 0 c -0.454,0.186 -0.926,0.331 -1.394,0.479 v 0 c -0.195,0.062 -0.395,0.091 -0.596,0.091 v 0 c -0.85,0 -1.691,-0.526 -2.017,-1.329"
               style="fill:url(#linearGradient1594);stroke:none"
               id="path1596" />
          </g>
        </g>
      </g>
    </g>
    <g
       id="g1628"
       transform="matrix(0.60544988,0,0,-0.60544988,-147.45314,386.209)"
       style="fill:#fff6f2;fill-opacity:1">
      <g
         id="g1630"
         clip-path="url(#clipPath1634-8)"
         style="fill:#fff6f2;fill-opacity:1">
        <g
           id="g1636"
           transform="translate(465.508,445.5506)"
           style="fill:#fff6f2;fill-opacity:1">
          <path
             d="m 0,0 c -0.838,0.257 -1.673,0.524 -2.514,0.77 -0.876,0.257 -1.757,0.494 -2.636,0.741 -0.067,0.018 -0.131,0.044 -0.2,0.067 0.446,0.135 0.883,0.263 1.317,0.401 0.345,0.111 0.504,0.431 0.407,0.79 C -3.73,3.156 -3.979,3.308 -4.375,3.22 -5.239,3.028 -6.093,2.779 -6.974,2.673 -7.816,2.571 -8.669,2.444 -9.513,2.545 c -0.895,0.106 -1.775,0.331 -2.666,0.488 -1.427,0.251 -2.863,0.45 -4.301,0.633 -0.52,0.066 -1.056,0.046 -1.556,0.247 -3.167,1.509 -5.352,3.902 -6.519,7.219 -0.417,1.186 -0.846,2.368 -0.848,3.645 -0.002,1.147 0.032,2.295 0.05,3.443 0.017,0.968 0.033,1.936 0.053,2.904 0.028,1.282 0.043,2.564 0.094,3.845 0.088,2.244 1.813,3.963 4.058,4.054 1.835,0.074 3.337,-0.569 4.387,-2.115 0.634,-0.933 0.761,-1.998 0.698,-3.091 -0.056,-0.964 -0.213,-1.908 -0.779,-2.731 -0.887,-1.291 -2.108,-2.008 -3.693,-2.153 -0.217,0.547 -0.251,1.175 -0.746,1.57 -0.257,0.05 -0.424,-0.12 -0.637,-0.223 0.219,-0.631 0.515,-1.229 0.447,-1.92 -0.066,-0.68 -0.485,-1.226 -0.665,-1.866 0.088,-0.205 0.253,-0.337 0.431,-0.476 0.488,0.434 0.745,0.994 0.994,1.585 0.711,0.074 1.423,0.206 2.098,0.485 1.776,0.735 3.056,1.951 3.612,3.828 0.284,0.962 0.259,1.968 0.301,2.961 0.002,0.062 0,0.124 0,0.227 1.464,-0.082 2.81,-0.46 4.042,-1.235 1.27,-0.801 2.012,-1.986 2.472,-3.398 0.58,-0.138 1.146,-0.33 1.671,-0.624 0.938,-0.525 1.771,-1.181 2.321,-2.114 0.638,-1.084 0.729,-2.29 0.615,-3.517 -0.045,-0.483 -0.123,-0.962 -0.278,-1.422 -0.544,-1.619 -1.693,-2.595 -3.305,-3.062 -1.384,-0.4 -2.781,-0.353 -4.183,-0.118 -0.035,0.006 -0.067,0.022 -0.114,0.037 0.526,1.375 0.524,2.808 0.502,4.254 0.424,0.459 1.129,0.612 1.415,1.27 -0.035,0.022 -0.069,0.037 -0.096,0.061 -0.393,0.36 -0.45,0.398 -0.823,0.037 -0.703,-0.679 -1.494,-0.688 -2.349,-0.423 -0.367,0.113 -0.731,0.238 -1.121,0.365 -0.086,-0.219 -0.17,-0.432 -0.258,-0.661 0.551,-0.38 1.166,-0.565 1.809,-0.72 0.111,-0.56 0.133,-1.122 0.1,-1.684 -0.067,-1.122 -0.356,-2.156 -1.228,-2.946 -0.685,-0.622 -1.496,-0.969 -2.397,-1.134 -0.317,-0.058 -0.64,-0.083 -0.945,-0.2 -0.348,-0.133 -0.483,-0.335 -0.424,-0.643 0.063,-0.331 0.335,-0.582 0.653,-0.571 1.376,0.047 2.632,0.456 3.688,1.351 0.388,0.329 0.778,0.395 1.243,0.306 1.451,-0.28 2.91,-0.294 4.355,0.002 1.665,0.342 3.006,1.22 4.003,2.605 0.22,0.305 0.436,0.612 0.674,0.945 C -1.297,10.259 -0.59,8.503 -1.151,6.394 -1.241,6.056 -1.316,5.715 -1.417,5.38 -1.463,5.229 -1.448,5.1 -1.373,4.97 -1.284,4.815 -1.205,4.652 -1.1,4.508 -0.106,3.157 0.175,1.635 0,0"
             style="fill:#fff6f2;fill-opacity:1;fill-rule:nonzero;stroke:none"
             id="path1638" />
        </g>
        <g
           id="g1640"
           transform="translate(417.4757,447.7976)"
           style="fill:#fff6f2;fill-opacity:1">
          <path
             d="m 0,0 c -0.137,-0.161 -0.339,-0.132 -0.515,-0.169 -1.563,-0.338 -3.121,-0.695 -4.669,-1.098 -0.05,-0.013 -0.105,-0.009 -0.158,-0.014 -0.071,1.552 0.25,2.99 1.234,4.236 0.004,0.007 0.008,0.015 0.014,0.022 0.377,0.406 0.481,0.847 0.314,1.401 -0.214,0.711 -0.329,1.448 -0.267,2.203 0.103,1.247 0.967,2.977 1.886,3.714 0.236,-0.358 0.467,-0.72 0.71,-1.073 C -0.343,7.617 1.205,6.718 3.112,6.428 4.312,6.245 5.521,6.207 6.728,6.41 7.171,6.484 7.549,6.39 7.907,6.058 8.915,5.124 10.143,4.659 11.503,4.541 11.975,4.5 12.316,4.916 12.223,5.38 12.183,5.577 12.031,5.651 11.876,5.722 11.488,5.899 11.062,5.926 10.657,6.042 9.073,6.5 7.923,7.399 7.562,9.092 7.365,10.018 7.419,10.944 7.608,11.887 8.242,12.018 8.877,12.163 9.45,12.535 9.375,12.761 9.303,12.977 9.228,13.205 8.703,13.074 8.216,12.89 7.702,12.806 7.021,12.696 6.399,12.765 5.895,13.301 5.748,13.457 5.574,13.588 5.369,13.677 5.136,13.649 5.018,13.453 4.84,13.323 5.103,12.689 5.77,12.492 6.202,12.027 6.103,10.592 6.054,9.151 6.526,7.729 4.75,7.507 3.024,7.531 1.411,8.354 c -1.588,0.81 -2.383,2.16 -2.546,3.914 -0.089,0.948 -0.037,1.878 0.24,2.794 0.431,1.425 1.479,2.289 2.711,2.98 0.582,0.327 1.212,0.531 1.885,0.649 0.545,1.492 1.433,2.698 2.873,3.442 1.193,0.617 2.462,0.893 3.825,0.927 0,-0.558 0.007,-1.093 -10e-4,-1.628 -0.049,-3.432 2.468,-5.476 5.049,-6.013 0.209,-0.044 0.422,-0.075 0.646,-0.114 0.225,-0.584 0.456,-1.167 0.936,-1.632 0.159,0.135 0.332,0.243 0.436,0.441 -0.014,0.231 -0.106,0.449 -0.21,0.652 -0.496,0.961 -0.469,1.91 0.032,2.857 0.037,0.07 0.067,0.146 0.098,0.22 0.007,0.016 0.007,0.035 0.011,0.06 -0.067,0.109 -0.187,0.155 -0.293,0.215 -0.192,0.108 -0.353,0.077 -0.498,-0.097 -0.228,-0.276 -0.353,-0.6 -0.46,-0.934 -0.046,-0.143 -0.099,-0.284 -0.153,-0.439 -0.961,0.096 -1.797,0.45 -2.528,1.049 -1.072,0.879 -1.635,2.018 -1.72,3.398 -0.057,0.927 -0.055,1.853 0.297,2.729 0.659,1.642 1.921,2.544 3.633,2.838 1.055,0.181 2.081,0.046 3.029,-0.463 1.486,-0.798 2.156,-2.11 2.191,-3.748 0.038,-1.882 -0.072,-3.764 -0.115,-5.647 C 20.75,15.496 20.705,14.187 20.695,12.878 20.687,11.544 20.327,10.3 19.828,9.08 19.297,7.78 18.659,6.542 17.81,5.42 16.765,4.041 15.386,3.069 13.893,2.242 13.627,2.095 13.348,1.972 13.074,1.837 12.717,1.694 12.334,1.722 11.964,1.689 9.416,1.466 6.882,1.146 4.358,0.735 4.184,0.707 4.003,0.714 3.824,0.704 3.104,0.782 2.38,0.832 1.666,0.964 0.812,1.123 -0.014,1.393 -0.852,1.614 -1.222,1.711 -1.454,1.578 -1.574,1.214 -1.695,0.846 -1.564,0.528 -1.221,0.405 -0.817,0.261 -0.407,0.134 0,0"
             style="fill:#fff6f2;fill-opacity:1;fill-rule:nonzero;stroke:none"
             id="path1642" />
        </g>
        <g
           id="g1644"
           transform="translate(444.5734,449.6927)"
           style="fill:#fff6f2;fill-opacity:1">
          <path
             d="m 0,0 c -0.069,-0.092 -0.167,-0.049 -0.249,-0.043 -1.044,0.083 -2.089,0.132 -3.136,0.159 -0.421,0.01 -0.84,0.032 -1.261,0.05 0.001,1.237 -0.008,2.475 0.007,3.712 0.006,0.51 0.067,1.019 0.102,1.529 C -4.52,5.403 -4.503,5.401 -4.486,5.398 -3.977,4.537 -3.49,3.661 -2.896,2.853 -2.083,1.749 -1.095,0.819 0,0"
             style="fill:#fff6f2;fill-opacity:1;fill-rule:nonzero;stroke:none"
             id="path1646" />
        </g>
        <g
           id="g1648"
           transform="translate(437.8849,449.864)"
           style="fill:#fff6f2;fill-opacity:1">
          <path
             d="m 0,0 c -1.213,-0.005 -2.426,-0.022 -3.639,-0.067 -0.26,-0.01 -0.524,-0.109 -0.785,0.003 1.912,1.314 3.328,3.07 4.488,5.06 C 0.235,3.314 0.03,1.658 0,0"
             style="fill:#fff6f2;fill-opacity:1;fill-rule:nonzero;stroke:none"
             id="path1650" />
        </g>
        <g
           id="g1652"
           transform="translate(440.0871,455.0911)"
           style="fill:#fff6f2;fill-opacity:1">
          <path
             d="m 0,0 c -0.017,0.002 -0.033,0.005 -0.051,0.008 0.01,0.01 0.02,0.02 0.03,0.031 C -0.014,0.025 -0.007,0.013 0,0"
             style="fill:#fff6f2;fill-opacity:1;fill-rule:nonzero;stroke:none"
             id="path1654" />
        </g>
        <g
           id="g1656"
           transform="translate(423.3322,444.6297)"
           style="fill:#fff6f2;fill-opacity:1">
          <path
             d="m 0,0 c 2.115,0.333 4.239,0.591 6.373,0.771 1.34,0.112 2.679,0.215 4.023,0.27 1.352,0.056 2.705,0.109 4.058,0.09 -0.06,-2.689 -0.118,-5.378 -0.182,-8.066 -0.049,-2.106 -0.101,-4.211 -0.162,-6.317 -0.053,-1.866 -0.524,-3.595 -1.744,-5.059 -1.021,-1.224 -2.315,-1.979 -3.902,-2.223 -1.935,-0.297 -3.792,-0.073 -5.534,0.842 -2.071,1.088 -3.264,2.823 -3.669,5.111 -0.311,1.755 -0.267,3.483 0.473,5.14 1.132,2.537 3.043,4.121 5.79,4.627 1.262,0.233 2.5,0.07 3.688,-0.433 0.346,-0.147 0.694,-0.288 1.047,-0.418 0.324,-0.12 0.56,-0.024 0.722,0.271 0.152,0.276 0.098,0.561 -0.151,0.769 -0.594,0.493 -1.302,0.742 -2.034,0.932 -1.048,0.271 -2.106,0.44 -3.192,0.264 -1.912,-0.311 -3.548,-1.151 -4.975,-2.47 -1.969,-1.821 -2.763,-4.105 -2.834,-6.71 -0.034,-1.255 0.141,-2.484 0.463,-3.695 0.013,-0.05 0.021,-0.1 0.039,-0.182 -0.522,0.108 -0.983,0.295 -1.421,0.529 -1.983,1.063 -3.229,2.707 -3.81,4.869 -0.266,0.991 -0.458,1.99 -0.332,3.025 0.045,0.371 0.189,0.707 0.324,1.048 0.095,0.241 0.192,0.481 0.235,0.74 0.052,0.307 -0.052,0.539 -0.312,0.672 -0.265,0.135 -0.594,0.084 -0.787,-0.135 -0.367,-0.418 -0.535,-0.926 -0.633,-1.461 -0.052,-0.281 -0.084,-0.567 -0.136,-0.92 -1.208,1.425 -1.371,3.1 -1.448,4.862 0.169,-0.113 0.297,-0.189 0.415,-0.28 1.239,-0.963 2.671,-1.201 4.188,-1.11 1.888,0.113 3.595,0.767 5.206,1.772 0.46,-0.353 0.839,-0.871 1.536,-0.862 0.061,0.146 0.12,0.29 0.207,0.498 C 1.325,-3.055 1.113,-2.863 0.9,-2.671 0.3,-2.129 0.004,-1.456 0.019,-0.645 0.022,-0.43 0.007,-0.215 0,0"
             style="fill:#fff6f2;fill-opacity:1;fill-rule:nonzero;stroke:none"
             id="path1658" />
        </g>
        <g
           id="g1660"
           transform="translate(439.8449,445.7542)"
           style="fill:#fff6f2;fill-opacity:1">
          <path
             d="m 0,0 c 2.229,-0.062 4.452,-0.187 6.672,-0.405 2.549,-0.251 5.081,-0.605 7.596,-1.086 0.051,-0.01 0.109,-0.004 0.142,-0.058 -0.033,-0.32 -0.076,-0.64 -0.097,-0.962 -0.038,-0.55 -0.296,-0.981 -0.671,-1.366 -0.276,-0.283 -0.525,-0.59 -0.817,-0.861 -0.03,-0.127 0.049,-0.266 0.11,-0.424 0.674,-0.047 1.075,0.431 1.558,0.794 0.538,-0.353 1.091,-0.696 1.678,-0.979 1.683,-0.812 3.44,-1.206 5.316,-0.999 0.718,0.08 1.374,0.317 1.987,0.691 0.25,0.153 0.502,0.303 0.762,0.461 0.039,-1.397 -0.465,-3.718 -1.6,-4.728 -0.033,0.301 -0.059,0.579 -0.095,0.856 -0.067,0.521 -0.207,1.018 -0.521,1.45 -0.206,0.281 -0.526,0.373 -0.83,0.24 -0.284,-0.125 -0.393,-0.373 -0.333,-0.735 0.052,-0.312 0.165,-0.604 0.276,-0.898 0.329,-0.877 0.246,-1.766 0.057,-2.65 -0.319,-1.489 -0.849,-2.885 -1.878,-4.048 -1,-1.131 -2.213,-1.919 -3.687,-2.287 -0.059,-0.015 -0.115,-0.049 -0.202,-0.005 0.156,0.525 0.307,1.055 0.414,1.597 0.361,1.831 0.358,3.652 -0.159,5.456 -0.682,2.379 -2.256,4.056 -4.323,5.274 -1.291,0.76 -2.722,1.197 -4.261,1.096 C 6.089,-4.643 5.103,-4.817 4.166,-5.208 3.883,-5.326 3.617,-5.474 3.378,-5.666 3.125,-5.868 3.07,-6.149 3.219,-6.433 c 0.154,-0.292 0.388,-0.384 0.718,-0.285 0.676,0.204 1.315,0.519 2.015,0.654 2.32,0.445 4.373,-0.161 6.118,-1.693 2.091,-1.837 2.939,-4.2 2.68,-6.964 -0.111,-1.189 -0.375,-2.34 -0.954,-3.391 -1.063,-1.927 -2.742,-3.034 -4.852,-3.513 -1.663,-0.378 -3.333,-0.334 -4.923,0.289 -2.228,0.874 -3.479,2.618 -4.04,4.893 -0.257,1.046 -0.234,2.117 -0.21,3.185 0.02,0.923 0.039,1.846 0.053,2.769 0.037,2.412 0.071,4.824 0.109,7.236 C -0.05,-2.168 -0.022,-1.084 0,0"
             style="fill:#fff6f2;fill-opacity:1;fill-rule:nonzero;stroke:none"
             id="path1662" />
        </g>
        <g
           id="g1664"
           transform="translate(413.963,442.6472)"
           style="fill:#fff6f2;fill-opacity:1">
          <path
             d="M 0,0 C 0.006,0.137 0.127,0.109 0.201,0.128 2.101,0.613 4.015,1.029 5.94,1.395 6.713,1.542 7.489,1.674 8.265,1.81 8.369,1.828 8.478,1.822 8.584,1.828 8.524,1.32 8.521,0.81 8.528,0.28 8.08,-0.022 7.6,-0.272 7.106,-0.501 5.933,-1.046 4.714,-1.411 3.408,-1.377 2.104,-1.344 0.919,-0.995 0,0"
             style="fill:#fff6f2;fill-opacity:1;fill-rule:nonzero;stroke:none"
             id="path1666" />
        </g>
        <g
           id="g1668"
           transform="translate(455.0578,444.0686)"
           style="fill:#fff6f2;fill-opacity:1">
          <path
             d="m 0,0 c 1.634,-0.305 3.245,-0.702 4.85,-1.13 1.129,-0.301 2.254,-0.627 3.366,-0.988 0.076,-0.024 0.16,-0.029 0.2,-0.114 C 7.22,-3.344 5.771,-3.55 4.235,-3.345 2.659,-3.135 1.276,-2.432 0,-1.577 Z"
             style="fill:#fff6f2;fill-opacity:1;fill-rule:nonzero;stroke:none"
             id="path1670" />
        </g>
      </g>
    </g>
    <g
       id="g1672"
       transform="matrix(0.60544988,0,0,-0.60544988,-147.45314,386.209)">
      <g
         id="g1674"
         clip-path="url(#clipPath1678-5)">
        <g
           id="g1680">
          <g
             id="g1682">
            <path
               d="m 415.902,449.012 c -0.122,-0.368 0.01,-0.686 0.353,-0.809 v 0 c 0.404,-0.144 0.813,-0.271 1.221,-0.405 v 0 c 0.086,-0.003 0.166,-0.025 0.261,-0.007 v 0 c 0.831,0.167 1.667,0.314 2.498,0.481 v 0 c 0.356,0.071 0.728,0.07 1.065,0.229 v 0 c -0.721,0.079 -1.445,0.128 -2.158,0.261 v 0 c -0.854,0.159 -1.68,0.429 -2.518,0.649 v 0 c -0.078,0.021 -0.15,0.032 -0.217,0.032 v 0 c -0.247,-10e-4 -0.411,-0.145 -0.505,-0.431"
               style="fill:url(#linearGradient1698);stroke:none"
               id="path1700" />
          </g>
        </g>
      </g>
    </g>
    <g
       id="g1702"
       transform="matrix(0.60544988,0,0,-0.60544988,-147.45314,386.209)">
      <g
         id="g1704"
         clip-path="url(#clipPath1708-0)">
        <g
           id="g1710">
          <g
             id="g1712">
            <path
               d="m 461.169,448.783 c -0.838,-0.22 -1.674,-0.387 -2.528,-0.546 v 0 c -0.763,-0.093 -1.452,-0.186 -2.167,-0.177 v 0 c 0.393,-0.144 1.937,-0.548 2.314,-0.648 v 0 c 0.832,-0.202 0.539,-0.117 1.37,-0.283 v 0 c 0.106,0.03 0.974,0.28 1.378,0.424 v 0 c 0.343,0.122 0.477,0.462 0.356,0.831 v 0 c -0.095,0.287 -0.26,0.43 -0.507,0.43 v 0 c -0.066,0 -0.138,-0.01 -0.216,-0.031"
               style="fill:url(#linearGradient1728);stroke:none"
               id="path1730" />
          </g>
        </g>
      </g>
    </g>
  </g>
</svg>
