<?xml version="1.0" encoding="UTF-8" standalone="no"?>
<!-- Created with Inkscape (http://www.inkscape.org/) -->

<svg
   width="177.8mm"
   height="60.658211mm"
   viewBox="0 0 177.8 60.658211"
   version="1.1"
   id="svg15496"
   xmlns:inkscape="http://www.inkscape.org/namespaces/inkscape"
   xmlns:sodipodi="http://sodipodi.sourceforge.net/DTD/sodipodi-0.dtd"
   xmlns="http://www.w3.org/2000/svg"
   xmlns:svg="http://www.w3.org/2000/svg">
  <sodipodi:namedview
     id="namedview15498"
     pagecolor="#ffffff"
     bordercolor="#000000"
     borderopacity="0.25"
     inkscape:showpageshadow="2"
     inkscape:pageopacity="0.0"
     inkscape:pagecheckerboard="0"
     inkscape:deskcolor="#d1d1d1"
     inkscape:document-units="mm"
     showgrid="false" />
  <defs
     id="defs15493">
    <clipPath
       clipPathUnits="userSpaceOnUse"
       id="clipPath27">
      <path
         d="M 0,198 H 504 V 0 H 0 Z"
         id="path25" />
    </clipPath>
    <clipPath
       clipPathUnits="userSpaceOnUse"
       id="clipPath35">
      <path
         d="M -75.3322,274.251 H 542.561 V -2.96552 H -75.3322 Z"
         id="path33" />
    </clipPath>
    <clipPath
       clipPathUnits="userSpaceOnUse"
       id="clipPath39">
      <path
         d="M 508.391,-2.966 H -3.103 v 204.023 h 511.494 z"
         id="path37" />
    </clipPath>
    <clipPath
       clipPathUnits="userSpaceOnUse"
       id="clipPath43">
      <path
         d="M -75.3322,274.251 H 542.561 V 26.0551 H -75.3322 Z"
         id="path41" />
    </clipPath>
    <clipPath
       clipPathUnits="userSpaceOnUse"
       id="clipPath47">
      <path
         d="M 18.7036,264.282 H 502.609 V 66.7901 H 18.7036 Z"
         id="path45" />
    </clipPath>
  </defs>
  <g
     inkscape:label="Layer 1"
     inkscape:groupmode="layer"
     id="layer1"
     transform="translate(-18.596269,-95.267912)">
    <g
       id="g21"
       transform="matrix(0.35277777,0,0,-0.35277777,18.596269,165.11791)"
       style="fill:#000000">
      <g
         id="g23"
         clip-path="url(#clipPath27)"
         style="fill:#000000">
        <g
           id="g29"
           style="fill:#000000">
          <g
             id="g31"
             style="fill:#000000" />
          <g
             id="g79"
             style="fill:#000000">
            <g
               clip-path="url(#clipPath35)"
               opacity="0.5"
               id="g77"
               style="fill:#000000">
              <g
                 id="g75"
                 style="fill:#000000">
                <g
                   clip-path="url(#clipPath39)"
                   id="g73"
                   style="fill:#000000">
                  <g
                     id="g59"
                     style="fill:#000000">
                    <g
                       id="g49"
                       style="fill:#000000" />
                    <g
                       id="g57"
                       style="fill:#000000">
                      <g
                         clip-path="url(#clipPath43)"
                         opacity="0.300003"
                         id="g55"
                         style="fill:#000000">
                        <g
                           transform="translate(522.8305,218.9504)"
                           id="g53"
                           style="fill:#000000">
                          <path
                             d="m 0,0 14.705,-48.527 c -0.358,-0.161 -0.682,-0.378 -0.962,-0.64 l -28.253,18.641 12.89,30.482 c 0.389,-0.08 0.798,-0.099 1.214,-0.04 C -0.267,-0.064 -0.133,-0.035 0,0 m -76.698,5.026 c 0.178,-0.147 0.369,-0.275 0.571,-0.385 l -23.008,-50.132 -20.027,10.3 c 0.159,0.497 0.215,1.035 0.137,1.586 -0.077,0.542 -0.276,1.036 -0.56,1.464 z m -49.409,-39.078 c -0.003,-0.184 0.004,-0.369 0.031,-0.556 0.086,-0.609 0.322,-1.16 0.666,-1.621 l -36.366,-37.646 -46.655,50.413 c 0.24,0.335 0.422,0.711 0.534,1.114 z m -350.88,33.62 116.277,7.997 c 0.217,-0.993 0.835,-1.809 1.658,-2.298 l -20.805,-50.929 c -0.429,0.105 -0.884,0.134 -1.348,0.068 -1.116,-0.158 -2.035,-0.819 -2.566,-1.72 l -93.438,45.664 c 0.149,0.401 0.224,0.833 0.218,1.278 z m -6.073,-2.499 c 0.061,-0.061 0.124,-0.12 0.189,-0.176 l -16.052,-29.797 -13.004,3.987 c 0.008,0.209 0.001,0.422 -0.03,0.637 -0.073,0.512 -0.253,0.982 -0.512,1.393 z m -35.797,-24.721 c -0.17,-0.509 -0.232,-1.063 -0.151,-1.63 0.008,-0.058 0.022,-0.113 0.033,-0.169 l -24.543,-8.604 -15.871,29.81 c 0.303,0.225 0.565,0.497 0.782,0.802 z m 64.257,-96.62 c -0.005,0.11 -0.014,0.221 -0.03,0.332 -0.083,0.588 -0.308,1.12 -0.632,1.571 l 27.768,26.883 26.341,-32.533 c -0.396,-0.432 -0.683,-0.959 -0.829,-1.535 z m 61.84,-6.069 86.999,4.198 43.224,-60.629 c -0.206,-0.2 -0.389,-0.422 -0.542,-0.664 z m 262.821,2.761 c 0.015,0.236 0.006,0.478 -0.029,0.722 -0.029,0.205 -0.079,0.401 -0.14,0.592 l 14.683,7.274 30.361,-18.026 c -0.014,-0.034 -0.03,-0.066 -0.043,-0.101 z m 51.22,-8.946 c -0.023,0.038 -0.049,0.073 -0.073,0.109 l 54.995,48.887 21.469,-14.836 c -0.306,-0.621 -0.436,-1.336 -0.331,-2.073 0.018,-0.126 0.043,-0.249 0.073,-0.37 z m 80.063,36.115 c -0.318,0.043 -0.646,0.046 -0.979,-0.001 -0.836,-0.119 -1.562,-0.521 -2.097,-1.093 l -21.26,14.691 36.62,32.553 c 0.264,-0.268 0.567,-0.494 0.901,-0.668 z m -16.269,68.905 28.014,-18.483 c -0.386,-0.667 -0.563,-1.462 -0.446,-2.283 0.015,-0.103 0.036,-0.204 0.059,-0.303 l -45.334,-24.118 c -0.275,0.372 -0.619,0.685 -1.01,0.924 z M -98.203,-45.97 -75.139,4.282 c 0.387,-0.079 0.793,-0.097 1.207,-0.039 0.341,0.049 0.662,0.147 0.961,0.281 L -37.4,-75.803 c -0.388,-0.246 -0.722,-0.563 -0.987,-0.931 z m -0.437,-0.953 59.774,-30.742 c -0.174,-0.513 -0.237,-1.073 -0.156,-1.646 0.007,-0.048 0.019,-0.095 0.028,-0.143 l -58.738,-20.113 -27.569,-9.441 c -0.285,0.552 -0.707,1.012 -1.216,1.344 z m -20.985,10.793 20.053,-10.313 -27.897,-60.783 c -0.066,0.02 -0.133,0.036 -0.2,0.052 l 4.232,54.952 1.121,14.566 c 0.089,0.006 0.177,0.011 0.267,0.024 1.023,0.145 1.879,0.714 2.424,1.502 m -41.439,-38.514 36.394,37.677 c 0.388,-0.287 0.833,-0.493 1.311,-0.605 l -1.147,-14.887 -4.207,-54.636 c -0.083,-0.006 -0.166,-0.011 -0.249,-0.023 -0.56,-0.079 -1.068,-0.288 -1.505,-0.587 z m -0.729,-0.754 30.557,-33.019 c -0.14,-0.175 -0.264,-0.363 -0.369,-0.562 l -44.154,15.582 c 0.074,0.379 0.09,0.776 0.033,1.18 -0.09,0.63 -0.341,1.196 -0.703,1.667 z m -0.712,0.769 -14.678,-15.195 c -0.719,0.514 -1.627,0.765 -2.57,0.631 -0.156,-0.022 -0.307,-0.057 -0.455,-0.098 l -29.01,65.025 c 0.02,0.016 0.04,0.032 0.06,0.048 z m -89.036,80.567 37.023,-25.753 c -0.309,-0.623 -0.441,-1.342 -0.335,-2.083 0.064,-0.45 0.212,-0.866 0.422,-1.24 l -42.957,-31.12 c -0.464,0.474 -1.054,0.814 -1.709,0.972 l 5.174,58.112 c 0.097,0.006 0.194,0.013 0.292,0.027 0.833,0.118 1.555,0.517 2.09,1.085 m -67.936,43.468 62.096,-39.577 c -0.265,-0.592 -0.375,-1.262 -0.277,-1.952 0.05,-0.352 0.151,-0.683 0.293,-0.99 l -27.959,-18.315 -34.634,60.375 c 0.174,0.138 0.335,0.292 0.481,0.459 m -1.39,-0.98 34.666,-60.429 -44.726,-29.299 c -0.456,0.511 -1.053,0.884 -1.721,1.067 l 10.586,88.416 c 0.132,0.004 0.265,0.013 0.4,0.033 0.279,0.039 0.544,0.113 0.795,0.212 M -353.71,8.83 c -0.105,0.742 -0.433,1.396 -0.905,1.909 l 28.585,35.382 -26.81,-46.192 -2.462,5.413 c 1.128,0.731 1.794,2.07 1.592,3.488 m -30.454,-57.118 c -0.025,-0.106 -0.047,-0.213 -0.062,-0.322 l -60.474,4.778 -21.575,1.704 c -0.006,0.085 -0.011,0.171 -0.024,0.256 -0.271,1.91 -2.011,3.245 -3.914,3.035 l -9.216,35.048 c 0.697,0.23 1.288,0.662 1.714,1.222 z m -114.245,14.131 25.064,-7.684 c -0.05,-0.334 -0.055,-0.681 -0.005,-1.033 0.052,-0.367 0.159,-0.713 0.31,-1.031 l -47.205,-31.758 c -0.113,0.111 -0.231,0.216 -0.357,0.31 z m -13.713,4.204 12.692,-3.891 -22.094,-41.013 c -0.187,0.068 -0.38,0.119 -0.578,0.155 l 6.787,42.365 c 0.111,0.005 0.222,0.014 0.334,0.03 1.364,0.194 2.434,1.138 2.859,2.354 m -30.898,-9.036 24.39,8.55 c 0.47,-0.893 1.299,-1.546 2.272,-1.793 l -6.8,-42.441 c -0.026,-0.003 -0.051,-0.003 -0.076,-0.007 -0.241,-0.034 -0.472,-0.092 -0.693,-0.17 z m -1,-0.351 19.169,-36.002 c -0.473,-0.351 -0.851,-0.815 -1.102,-1.345 l -65.124,19.654 c 0.048,0.33 0.053,0.671 0.003,1.017 -0.008,0.058 -0.022,0.112 -0.032,0.169 z m -32.434,-131.452 -17.092,110.877 c 0.266,0.083 0.519,0.192 0.752,0.329 l 47.199,-58.469 -29.601,-52.987 c -0.393,0.157 -0.818,0.244 -1.258,0.25 m 114.741,46.374 -66.242,-9.419 c -0.19,0.642 -0.548,1.2 -1.023,1.628 l 26.144,39.288 41.516,-29.889 c -0.252,-0.487 -0.392,-1.035 -0.395,-1.608 m 33.557,29.749 -27.834,-26.947 c -0.602,0.461 -1.349,0.728 -2.143,0.732 l -10.678,75.101 c 0.283,0.084 0.55,0.198 0.796,0.343 z m 0.756,0.732 -39.801,49.156 c 0.412,0.45 0.705,1.004 0.844,1.609 l 82.136,-6.489 c 0.101,-0.658 0.378,-1.244 0.775,-1.724 z m 27.061,-33.423 -26.4,32.606 44.073,42.668 c 0.246,-0.163 0.512,-0.296 0.793,-0.395 l -2.468,-11.186 -13.942,-63.208 c -0.245,0.017 -0.495,0.01 -0.748,-0.026 -0.477,-0.068 -0.918,-0.228 -1.308,-0.459 m 93.855,2.23 -88.638,-4.277 c -0.027,0.092 -0.057,0.182 -0.092,0.27 l 62.455,35.633 c 0.755,-0.999 2.015,-1.57 3.343,-1.381 0.401,0.057 0.775,0.181 1.116,0.356 z m 1.243,0.06 -22.207,31.149 c 0.176,0.17 0.333,0.357 0.471,0.558 l 57.796,-29.208 c -0.082,-0.246 -0.137,-0.503 -0.163,-0.767 z m 43.557,-61.094 -42.834,60.081 35.225,1.699 c 0.318,-1.606 1.682,-2.768 3.274,-2.863 l 5.123,-58.624 c -0.279,-0.067 -0.542,-0.167 -0.788,-0.293 m 79.771,91.08 -76.297,-91.212 c -0.488,0.299 -1.05,0.482 -1.643,0.518 l -5.123,58.624 c 1.769,0.422 2.959,2.128 2.698,3.964 -0.01,0.065 -0.025,0.128 -0.038,0.191 l 79.927,28.602 c 0.133,-0.249 0.292,-0.48 0.476,-0.687 m -28.233,70.328 28.982,-64.961 c -0.441,-0.282 -0.813,-0.655 -1.091,-1.092 l -52.786,23.538 22.705,42.462 c 0.475,-0.141 0.986,-0.188 1.509,-0.113 0.237,0.033 0.464,0.09 0.681,0.166 m -46.258,-31.489 c -0.059,0.41 -0.188,0.792 -0.369,1.14 l 42.984,31.139 c 0.155,-0.149 0.323,-0.282 0.502,-0.4 L -236,-66.843 l -20.501,9.141 c 0.129,0.46 0.168,0.954 0.097,1.457 m -73.656,13.076 c -0.05,0.352 -0.152,0.684 -0.293,0.991 l 44.674,29.265 23.543,-41.041 c -0.534,-0.422 -0.938,-0.991 -1.16,-1.636 l -66.759,12.36 c -0.002,0.02 -0.002,0.041 -0.005,0.061 m -22.249,41.929 28.831,49.672 c 0.122,-0.049 0.247,-0.093 0.376,-0.128 l -10.586,-88.415 c -0.132,-0.004 -0.265,-0.014 -0.399,-0.033 -0.165,-0.024 -0.324,-0.062 -0.479,-0.106 z m -26.175,-45.098 25.53,43.987 17.434,-38.332 c -0.945,-0.613 -1.564,-1.652 -1.621,-2.808 l -40.067,-4.97 c -0.163,0.868 -0.63,1.607 -1.276,2.123 m -124.62,-45.099 -16.376,11.791 c 0.262,0.589 0.37,1.256 0.272,1.942 -0.052,0.371 -0.161,0.72 -0.315,1.041 l 47.076,31.882 c 0.075,-0.081 0.154,-0.16 0.236,-0.234 z m 169.662,-0.424 c 0.035,-0.252 0.098,-0.493 0.182,-0.723 l -62.473,-35.644 c -0.077,0.098 -0.159,0.191 -0.246,0.28 l 42.387,55.514 20.653,-17.044 c -0.428,-0.686 -0.626,-1.52 -0.503,-2.383 m 64.733,-29.776 -57.812,29.217 c 0.154,0.49 0.207,1.019 0.13,1.562 -0.033,0.227 -0.087,0.446 -0.159,0.655 l 23.046,11.372 35.055,-42.478 c -0.094,-0.103 -0.179,-0.214 -0.26,-0.328 m 11.78,62.979 20.434,-9.111 -28.11,-52.57 c -0.121,0.043 -0.244,0.078 -0.37,0.109 l 5.259,59.932 c 0.095,0.006 0.191,0.013 0.287,0.026 1.071,0.153 1.961,0.768 2.5,1.614 m -96.027,-12.944 18.665,24.445 c 0.387,-0.079 0.793,-0.097 1.206,-0.039 0.226,0.033 0.443,0.087 0.651,0.158 l 1.01,-22.536 0.82,-18.296 c -0.634,-0.125 -1.199,-0.41 -1.657,-0.811 z m 48.768,-6.399 -22.844,-11.272 c -0.589,0.812 -1.505,1.35 -2.526,1.453 l -0.816,18.209 -1.036,23.125 c 0.25,0.193 0.474,0.417 0.663,0.668 z m 0.964,0.476 -26.993,32.709 c 0.058,0.171 0.105,0.346 0.136,0.525 l 50.558,-9.36 16.037,-2.969 c -0.007,-0.207 0,-0.416 0.03,-0.627 0.029,-0.203 0.078,-0.398 0.138,-0.587 z m 35.582,-43.116 -34.897,42.286 39.685,19.582 c 0.496,-0.715 1.242,-1.229 2.095,-1.434 l -0.119,-1.356 -5.14,-58.576 c -0.096,-0.006 -0.191,-0.013 -0.287,-0.027 -0.489,-0.069 -0.94,-0.235 -1.337,-0.475 m -265.528,-11.14 -11.166,13.832 20.342,36.413 c 0.062,-0.023 0.127,-0.042 0.191,-0.063 l -7.551,-49.694 c -0.169,0 -0.34,-0.007 -0.512,-0.032 -0.475,-0.067 -0.914,-0.227 -1.304,-0.456 m 196.129,87.248 c 0.244,-0.981 0.886,-1.776 1.723,-2.244 l -18.446,-24.158 -24.003,19.808 c 0.325,0.475 0.535,1.027 0.6,1.616 z m 154.263,-48.687 c 0.01,-0.065 0.025,-0.128 0.038,-0.191 l -79.927,-28.602 c -0.251,0.468 -0.598,0.87 -1.015,1.18 l 28.146,52.637 52.855,-23.567 c -0.129,-0.46 -0.168,-0.953 -0.097,-1.457 m -211.061,-18.368 12.995,58.913 c 0.211,-0.008 0.425,-0.001 0.642,0.03 0.656,0.093 1.241,0.362 1.723,0.749 l 24.079,-19.872 -42.411,-55.545 c -0.145,0.081 -0.294,0.153 -0.449,0.212 z m -108.414,19.539 30.914,46.455 c 0.457,-0.216 0.964,-0.333 1.492,-0.336 l 10.678,-75.101 c -0.598,-0.177 -1.122,-0.502 -1.537,-0.929 z m -27.597,-39.58 c -0.15,0.071 -0.307,0.129 -0.467,0.179 l 7.571,49.687 c 0.17,0 0.341,0.007 0.514,0.032 0.886,0.126 1.647,0.57 2.19,1.198 l 16.358,-11.776 z m -44.44,-39.94 29.404,52.635 10.902,-13.504 c -0.698,-0.759 -1.063,-1.813 -0.907,-2.913 0.075,-0.526 0.264,-1.006 0.534,-1.425 l -39.821,-34.886 c -0.036,0.032 -0.074,0.063 -0.112,0.093 m -17.09,113.533 65.125,-19.653 c -0.049,-0.33 -0.053,-0.671 -0.004,-1.018 0.136,-0.957 0.642,-1.769 1.352,-2.316 l -20.138,-36.047 -46.935,58.142 c 0.244,0.265 0.446,0.566 0.6,0.892 m 336.414,62.954 -5.174,-58.112 c -0.097,-0.006 -0.194,-0.012 -0.291,-0.026 -0.28,-0.04 -0.545,-0.114 -0.796,-0.213 l -23.575,41.095 28.011,18.349 c 0.479,-0.538 1.116,-0.921 1.825,-1.093 m 118.983,-129.736 -40.148,30.393 c 0.008,0.014 0.016,0.028 0.024,0.043 l 44.153,-15.583 c -0.074,-0.379 -0.09,-0.776 -0.033,-1.18 0.175,-1.232 0.962,-2.225 2.009,-2.719 l -3.002,-9.973 c -0.329,0.048 -0.669,0.053 -1.015,0.003 -0.781,-0.111 -1.464,-0.47 -1.988,-0.984 m 19.485,6.463 -14.074,-6.973 c -0.358,0.514 -0.843,0.924 -1.405,1.189 l 3.002,9.973 c 0.329,-0.048 0.67,-0.052 1.015,-0.003 0.924,0.131 1.711,0.609 2.257,1.279 z m 1.118,0.554 -9.788,5.811 c 0.233,0.566 0.325,1.198 0.233,1.848 -0.007,0.049 -0.019,0.095 -0.028,0.143 l 36.32,12.438 45.711,15.652 z m 90.696,30.883 -53.184,-47.277 40.626,52.286 c 0.659,-0.372 1.44,-0.541 2.247,-0.426 0.837,0.119 1.562,0.521 2.098,1.093 z m -7.287,8.61 c -0.034,0.24 -0.091,0.471 -0.169,0.691 l 44.626,23.741 -36.364,-32.325 -8.423,5.82 c 0.306,0.621 0.435,1.336 0.33,2.073 M -71.47,5.802 -15.814,-30.92 -34.607,-75.361 c -0.441,0.114 -0.911,0.145 -1.39,0.077 -0.153,-0.022 -0.301,-0.056 -0.446,-0.096 L -72.08,5.099 c 0.234,0.206 0.438,0.444 0.61,0.703 m -42.837,-124.24 75.89,37.597 c 0.105,-0.152 0.221,-0.294 0.348,-0.426 l -41.956,-53.997 c -0.659,0.372 -1.439,0.541 -2.247,0.426 -0.923,-0.131 -1.711,-0.609 -2.257,-1.28 z m -446.007,109.701 15.797,-29.668 -46.934,-16.454 c -0.204,0.387 -0.474,0.729 -0.796,1.013 l 29.267,45.226 c 0.597,-0.273 1.276,-0.386 1.974,-0.287 0.241,0.034 0.472,0.092 0.692,0.17 m 79.85,4.767 9.238,-35.133 c -0.804,-0.344 -1.444,-0.968 -1.812,-1.737 l -24.865,7.623 15.92,29.55 c 0.467,-0.207 0.983,-0.316 1.519,-0.303 m 124.209,8.879 2.77,-6.091 -23.871,-41.126 19.274,47.179 c 0.429,-0.105 0.884,-0.134 1.348,-0.068 0.164,0.023 0.323,0.061 0.479,0.106 M -2.605,0.315 -15.399,-29.939 -71.021,6.76 c 0.059,0.199 0.1,0.404 0.123,0.614 l 6.26,-0.37 60.173,-3.557 c 0,-0.167 0.007,-0.336 0.032,-0.507 0.164,-1.159 0.873,-2.105 1.828,-2.625 M 15.713,-48.241 0.968,0.416 C 2.131,1.138 2.823,2.5 2.618,3.943 2.341,5.89 0.538,7.244 -1.409,6.967 -2.819,6.767 -3.915,5.764 -4.308,4.487 l -66.63,3.938 c -0.349,1.863 -2.102,3.139 -3.997,2.87 -1.947,-0.277 -3.301,-2.08 -3.024,-4.027 0.077,-0.543 0.276,-1.037 0.56,-1.465 l -42.885,-37.168 c -0.746,0.616 -1.735,0.931 -2.768,0.784 -1.395,-0.198 -2.482,-1.181 -2.886,-2.438 l -81.832,11.711 c -0.003,0.136 -0.012,0.274 -0.032,0.413 -0.277,1.947 -2.08,3.301 -4.027,3.024 -0.833,-0.118 -1.555,-0.517 -2.09,-1.086 l -37.023,25.755 c 0.309,0.622 0.441,1.341 0.335,2.082 -0.277,1.947 -2.079,3.301 -4.027,3.024 -0.883,-0.126 -1.642,-0.567 -2.185,-1.193 l -62.096,39.578 c 0.265,0.592 0.375,1.262 0.277,1.951 -0.277,1.948 -2.08,3.302 -4.027,3.025 -1.947,-0.277 -3.301,-2.08 -3.024,-4.027 0.105,-0.742 0.433,-1.397 0.905,-1.909 l -30.647,-37.933 c -0.671,0.395 -1.475,0.576 -2.306,0.458 -1.682,-0.239 -2.92,-1.618 -3.047,-3.245 l -116.275,-7.997 0.037,-0.532 c -0.001,0.003 0,0.006 -0.001,0.01 -0.277,1.947 -2.08,3.301 -4.027,3.024 -1.947,-0.277 -3.301,-2.08 -3.024,-4.027 0.06,-0.425 0.197,-0.82 0.389,-1.178 l -29.467,-24.002 c -0.752,0.652 -1.769,0.989 -2.832,0.838 -1.006,-0.144 -1.852,-0.697 -2.398,-1.465 l -39.751,20.21 c 0.171,0.509 0.232,1.063 0.151,1.63 -0.276,1.947 -2.079,3.301 -4.026,3.024 -1.948,-0.276 -3.302,-2.079 -3.025,-4.026 0.125,-0.875 0.559,-1.629 1.174,-2.17 l -29.267,-45.226 c -0.598,0.273 -1.276,0.386 -1.975,0.287 -1.947,-0.277 -3.301,-2.08 -3.024,-4.027 0.254,-1.785 1.79,-3.068 3.544,-3.056 l 17.089,-110.855 c -1.683,-0.482 -2.798,-2.139 -2.544,-3.921 0.277,-1.947 2.08,-3.301 4.027,-3.024 1.947,0.277 3.301,2.08 3.024,4.027 -0.073,0.511 -0.253,0.979 -0.51,1.39 l 39.829,34.894 c 0.749,-0.635 1.754,-0.962 2.802,-0.813 1.771,0.252 3.047,1.766 3.056,3.503 l 66.243,9.418 c 0.493,-1.665 2.14,-2.764 3.911,-2.512 1.474,0.21 2.606,1.294 2.95,2.653 l 52.618,-5.282 c 0.005,-0.11 0.015,-0.221 0.03,-0.332 0.277,-1.947 2.08,-3.301 4.027,-3.024 1.75,0.248 3.017,1.73 3.055,3.441 l 131.472,-57.883 c -0.125,-0.455 -0.162,-0.943 -0.092,-1.441 0.277,-1.947 2.08,-3.301 4.027,-3.024 1.948,0.276 3.302,2.079 3.025,4.027 -0.103,0.72 -0.415,1.358 -0.865,1.864 l 76.297,91.212 c 0.681,-0.418 1.506,-0.61 2.359,-0.488 0.782,0.111 1.465,0.471 1.988,0.984 l 40.148,-30.393 c -0.356,-0.651 -0.517,-1.416 -0.404,-2.207 0.277,-1.948 2.08,-3.302 4.027,-3.025 1.336,0.19 2.393,1.099 2.835,2.28 l 44.832,-9.538 c -0.015,-0.237 -0.006,-0.478 0.029,-0.722 0.277,-1.947 2.08,-3.301 4.027,-3.024 1.947,0.276 3.301,2.079 3.024,4.026 -0.017,0.126 -0.042,0.25 -0.073,0.37 l 76.134,31.717 c 0.716,-1.187 2.093,-1.895 3.552,-1.687 1.947,0.277 3.301,2.08 3.024,4.027 -0.177,1.245 -0.979,2.245 -2.042,2.733 l 13.169,45.433 c 0.371,-0.069 0.757,-0.083 1.151,-0.027 1.947,0.277 3.301,2.08 3.024,4.027 -0.274,1.932 -2.052,3.278 -3.981,3.029"
                             style="fill:#000000;fill-opacity:1;fill-rule:nonzero;stroke:none"
                             id="path51" />
                        </g>
                      </g>
                    </g>
                  </g>
                  <g
                     id="g71"
                     style="fill:#000000">
                    <g
                       id="g61"
                       style="fill:#000000" />
                    <g
                       id="g69"
                       style="fill:#000000">
                      <g
                         clip-path="url(#clipPath47)"
                         opacity="0.100006"
                         id="g67"
                         style="fill:#000000">
                        <g
                           transform="translate(31.8016,204.305)"
                           id="g65"
                           style="fill:#000000">
                          <path
                             d="M 0,0 C 0.329,-0.025 0.647,0.011 0.948,0.094 L 12.612,-23.099 -8.54,-39.15 c -0.233,0.191 -0.498,0.344 -0.786,0.452 L -0.323,0.045 C -0.217,0.024 -0.11,0.008 0,0 m 94.941,-18.937 c -0.2,-0.349 -0.33,-0.746 -0.362,-1.174 -0.033,-0.436 0.039,-0.854 0.189,-1.234 L 79.624,-30.442 59.025,7.609 c 0.153,0.097 0.296,0.207 0.427,0.331 z m 68.62,12.227 c 0.109,-0.309 0.271,-0.594 0.475,-0.844 l -33.914,-41.87 -30.409,27.588 c 0.244,0.379 0.401,0.823 0.437,1.304 0.011,0.148 0.007,0.293 -0.004,0.436 z m 209.496,31.101 c 0.019,-0.349 0.099,-0.683 0.237,-0.989 l -70.78,-40.569 c -0.462,0.677 -1.215,1.147 -2.097,1.214 -0.367,0.028 -0.721,-0.019 -1.052,-0.123 L 280.45,22.713 c 0.619,0.426 1.061,1.096 1.18,1.885 l 91.427,-0.254 z M 402.197,5.47 c -0.182,-0.336 -0.299,-0.713 -0.329,-1.117 -0.013,-0.17 -0.008,-0.337 0.009,-0.501 L 391.904,0.06 377.801,22.554 c 0.048,0.047 0.094,0.097 0.138,0.147 z m 35.11,17.602 c 0.185,-0.227 0.404,-0.427 0.653,-0.587 L 427.077,-1.668 407.422,3.799 c 0.005,0.044 0.013,0.088 0.017,0.133 0.034,0.448 -0.043,0.879 -0.203,1.268 z M 321.017,-80.599 c -0.144,0.443 -0.396,0.841 -0.728,1.159 l 18.938,26.825 23.123,-19.608 c -0.23,-0.37 -0.378,-0.798 -0.413,-1.262 -0.007,-0.088 -0.008,-0.175 -0.007,-0.262 z M 215.281,-133.08 c -0.132,0.181 -0.286,0.346 -0.458,0.491 l 30.702,49.69 68.314,1.207 z m -141.904,30.192 c -0.012,0.027 -0.027,0.051 -0.039,0.077 l 22.833,15.678 11.869,-4.935 c -0.038,-0.153 -0.067,-0.309 -0.079,-0.471 -0.014,-0.193 -0.009,-0.382 0.015,-0.567 z M 7.115,-81.86 c 0.018,0.096 0.031,0.194 0.038,0.294 0.044,0.582 -0.094,1.135 -0.366,1.605 l 16.039,12.722 45.572,-35.425 c -0.017,-0.03 -0.036,-0.059 -0.052,-0.09 z M -8.857,-43.7 c 0.252,0.153 0.478,0.345 0.67,0.568 L 22.158,-66.72 6.276,-79.318 c -0.448,0.421 -1.037,0.698 -1.698,0.747 -0.263,0.02 -0.52,0 -0.766,-0.049 z m 38.781,-13.825 c -0.294,-0.207 -0.547,-0.47 -0.743,-0.775 l -36.73,16.536 c 0.013,0.079 0.024,0.159 0.03,0.24 0.049,0.649 -0.13,1.262 -0.467,1.764 l 20.973,15.914 z m 3.764,-0.51 c -0.226,0.274 -0.504,0.505 -0.821,0.678 L 56.561,7.355 c 0.241,-0.09 0.498,-0.15 0.767,-0.17 0.327,-0.025 0.644,0.011 0.943,0.092 L 78.92,-30.866 Z m 70.581,-19.658 c -0.382,-0.286 -0.688,-0.669 -0.883,-1.115 l -22.067,5.965 -47.015,12.71 c 0.004,0.038 0.011,0.075 0.014,0.114 0.034,0.453 -0.044,0.887 -0.207,1.28 l 45.2,27.15 z m -7.115,54.586 c 0.071,-0.005 0.14,-0.005 0.21,-0.005 l 1.63,-11.343 6.151,-42.796 c -0.052,-0.015 -0.103,-0.032 -0.154,-0.05 l -24.975,46.136 15.163,9.108 c 0.468,-0.588 1.167,-0.989 1.975,-1.05 m 10.209,-54.414 c -0.358,0.211 -0.766,0.348 -1.209,0.382 -0.066,0.005 -0.131,0.004 -0.196,0.005 l -6.115,42.548 -1.667,11.594 c 0.369,0.112 0.707,0.296 0.995,0.541 l 30.433,-27.611 z m 35.09,15.801 c -0.259,-0.387 -0.427,-0.843 -0.464,-1.341 -0.024,-0.319 0.009,-0.628 0.086,-0.921 L 108.319,-78.46 c -0.093,0.151 -0.199,0.291 -0.318,0.421 l 22.213,27.424 z m 22.192,53.612 c 0.017,-0.011 0.033,-0.024 0.05,-0.034 l -19.35,-52.397 c -0.117,0.024 -0.237,0.044 -0.36,0.053 -0.746,0.057 -1.444,-0.187 -1.979,-0.626 l -12.275,11.135 z m 33.309,25.052 c 0.077,-0.006 0.154,-0.006 0.23,-0.006 l 7.051,-45.219 c -0.504,-0.158 -0.948,-0.455 -1.287,-0.849 l -35.232,22.139 c 0.146,0.304 0.24,0.637 0.267,0.993 0.044,0.585 -0.096,1.141 -0.37,1.613 l 27.649,22.071 c 0.448,-0.418 1.034,-0.692 1.692,-0.742 m 49.64,37.94 -23.992,-49.047 -22.83,12.892 c 0.095,0.247 0.157,0.512 0.178,0.79 0.041,0.545 -0.079,1.064 -0.317,1.513 l 46.56,34.187 c 0.123,-0.124 0.257,-0.236 0.401,-0.335 m 1.371,-0.486 c 0.107,-0.008 0.211,-0.009 0.315,-0.005 l 12.853,-68.66 c -0.513,-0.177 -0.962,-0.5 -1.292,-0.924 l -36.522,20.623 24.013,49.091 c 0.202,-0.064 0.413,-0.108 0.633,-0.125 m 28.546,-31.82 -1.647,-4.364 -23.372,34.772 24.203,-26.219 c -0.343,-0.425 -0.566,-0.955 -0.61,-1.541 -0.085,-1.12 0.505,-2.134 1.426,-2.648 m 96.226,0.132 c 0.362,-0.416 0.848,-0.724 1.405,-0.868 l -5.404,-27.909 c -1.5,0.066 -2.793,-1.069 -2.907,-2.577 -0.005,-0.068 -0.005,-0.135 -0.005,-0.202 l -16.8,-2.449 -47.088,-6.863 c -0.018,0.085 -0.04,0.167 -0.066,0.249 z m 37.329,-54.757 c -0.094,-0.08 -0.181,-0.168 -0.263,-0.261 l -38.59,22.42 c 0.102,0.257 0.167,0.533 0.189,0.823 0.021,0.278 0,0.549 -0.057,0.808 l 19.222,7.31 z m -6.623,33.404 c 0.088,-0.007 0.176,-0.008 0.263,-0.007 l 7.501,-32.81 c -0.153,-0.038 -0.302,-0.088 -0.445,-0.151 l -19.413,30.961 9.734,3.702 c 0.396,-0.93 1.282,-1.614 2.36,-1.695 m 9.199,-32.838 c -0.176,0.049 -0.36,0.083 -0.55,0.097 -0.02,0.002 -0.04,0.001 -0.061,0.002 l -7.514,32.868 c 0.749,0.244 1.364,0.798 1.686,1.521 l 19.532,-5.433 z m 51.603,18.344 c -0.005,-0.045 -0.013,-0.088 -0.017,-0.134 -0.02,-0.273 10e-4,-0.54 0.056,-0.796 l -49.961,-18.748 c -0.223,0.403 -0.543,0.746 -0.932,0.996 l 13.145,29.17 z m -6.504,-90.989 -25.906,39.945 33.925,48.204 c 0.189,-0.095 0.392,-0.167 0.605,-0.218 l -7.651,-87.671 c -0.345,-0.028 -0.673,-0.117 -0.973,-0.26 m -91.628,31.871 30.952,25.539 22.494,-29.401 c -0.349,-0.36 -0.601,-0.816 -0.717,-1.328 l -52.337,3.951 c -0.032,0.449 -0.169,0.87 -0.392,1.239 m 1.246,60.906 c 0.2,-0.101 0.415,-0.176 0.641,-0.227 l -4.479,-59.337 c -0.622,-0.044 -1.193,-0.291 -1.64,-0.683 l -23.179,19.655 z m -65.888,-9.021 c 0.285,0.395 0.472,0.869 0.517,1.389 l 63.956,9.322 c 0.14,-0.467 0.398,-0.885 0.744,-1.216 l -28.615,-40.533 z m 16.099,-58.305 c -0.2,0.015 -0.396,0.008 -0.587,-0.018 l -14.178,48.755 -2.509,8.629 c 0.215,0.091 0.416,0.209 0.6,0.349 l 36.702,-31.121 -18.98,-26.886 c -0.318,0.161 -0.671,0.263 -1.048,0.292 m -57.036,21.685 c 0.276,-0.119 0.575,-0.197 0.891,-0.221 1.05,-0.079 2.007,0.433 2.546,1.254 l 50.726,-24.665 c -0.022,-0.071 -0.04,-0.143 -0.057,-0.216 l -69.602,-1.231 z m -44.659,-25.594 c -0.034,0.205 -0.091,0.403 -0.167,0.591 l 43.73,25.848 c 0.118,-0.151 0.251,-0.289 0.397,-0.413 l -15.773,-25.528 z m -3.383,-49.384 0.982,46.152 c 1.241,0.156 2.249,1.137 2.415,2.41 l 27.66,0.489 -30.425,-49.239 c -0.199,0.085 -0.41,0.15 -0.632,0.188 m -66.176,67.545 64.04,-18.259 c -0.007,-0.051 -0.016,-0.1 -0.019,-0.152 -0.11,-1.45 0.909,-2.725 2.316,-2.963 l -0.982,-46.153 c -0.463,-0.058 -0.893,-0.23 -1.26,-0.489 l -64.432,67.454 c 0.134,0.171 0.246,0.361 0.337,0.562 m 18.671,55.85 c 0.414,-0.031 0.811,0.031 1.176,0.166 l 19.966,-32.063 -40.103,-21.151 c -0.24,0.327 -0.55,0.6 -0.91,0.798 l 19.33,52.345 c 0.174,-0.048 0.355,-0.081 0.541,-0.095 m 37.445,-23.299 -15.575,-8.214 -19.973,32.075 c 0.134,0.102 0.259,0.215 0.373,0.339 l 35.253,-22.154 c -0.123,-0.281 -0.205,-0.586 -0.229,-0.91 -0.03,-0.398 0.026,-0.782 0.151,-1.136 m 56.826,15.127 -51.617,-13.123 c -0.207,0.494 -0.553,0.918 -0.992,1.221 l 16.308,33.34 36.48,-20.599 c -0.095,-0.248 -0.157,-0.513 -0.178,-0.791 -0.001,-0.016 0,-0.032 -0.001,-0.048 m 3.377,2.565 c -0.124,0.027 -0.25,0.049 -0.38,0.059 -0.106,0.008 -0.211,0.008 -0.315,0.005 l -12.852,68.66 c 0.098,0.034 0.194,0.074 0.287,0.119 l 25.133,-37.391 z m 33.802,-4.224 -31.619,1.821 c -0.104,0.902 -0.643,1.683 -1.414,2.114 l 11.666,30.904 22.256,-33.112 c -0.479,-0.436 -0.806,-1.039 -0.889,-1.727 m 74.185,7.605 c 0.06,0.062 0.117,0.127 0.172,0.195 l 38.495,-22.524 c -0.104,-0.259 -0.171,-0.538 -0.193,-0.831 -0.041,-0.542 0.078,-1.058 0.314,-1.506 L 398.2,-45.54 Z m -106.718,-41.998 15.285,14.408 36.046,-41.263 c -0.063,-0.074 -0.123,-0.151 -0.178,-0.232 l -50.741,24.673 c 0.054,0.184 0.09,0.376 0.105,0.576 0.052,0.681 -0.147,1.324 -0.517,1.838 m -48.834,-28.245 25.244,35.06 18.627,-7.712 c -0.046,-0.167 -0.077,-0.341 -0.091,-0.521 -0.032,-0.428 0.037,-0.84 0.182,-1.216 l -43.743,-25.855 c -0.069,0.085 -0.141,0.167 -0.219,0.244 m -10.214,47.31 c 0.076,-0.006 0.151,-0.006 0.226,-0.006 l 7.212,-46.64 c -0.097,-0.03 -0.191,-0.064 -0.283,-0.104 l -24.719,39.697 15.524,8.187 c 0.466,-0.634 1.194,-1.07 2.04,-1.134 m 58.476,-18.475 c -0.379,0.29 -0.836,0.484 -1.338,0.549 l -0.304,14.363 -0.374,17.692 c 0.167,-0.044 0.34,-0.076 0.518,-0.09 0.327,-0.024 0.644,0.011 0.943,0.093 l 15.872,-18.17 z m -3.399,33.472 c 0.161,-0.187 0.348,-0.35 0.554,-0.489 l 0.383,-18.154 0.302,-14.295 c -0.794,-0.133 -1.483,-0.602 -1.902,-1.268 l -18.463,7.643 z m -52.159,-12.888 c 0.038,0.151 0.066,0.306 0.078,0.466 0.013,0.167 0.008,0.331 -0.009,0.493 l 12.4,3.152 39.09,9.938 c 0.034,-0.139 0.079,-0.273 0.134,-0.404 l -19.44,-26.997 z m 5.558,-48.635 c -0.076,0.005 -0.151,0.006 -0.226,0.005 l -7.049,45.585 -0.163,1.055 c 0.657,0.204 1.214,0.645 1.566,1.231 l 32.074,-13.278 -25.131,-34.901 c -0.323,0.167 -0.685,0.273 -1.071,0.303 m 208.442,4.982 c -0.136,0.01 -0.27,0.007 -0.403,-0.002 l -8.477,38.508 c 0.049,0.019 0.099,0.037 0.146,0.059 l 17.804,-27.451 -8.026,-11.404 c -0.317,0.159 -0.669,0.261 -1.044,0.29 m -125.315,56.048 c 0.081,-0.458 0.274,-0.879 0.553,-1.234 l -17.765,-16.744 -15.686,17.957 c 0.631,0.409 1.092,1.065 1.233,1.845 z m -150.05,-43.118 40.155,21.177 24.749,-39.747 c -0.31,-0.264 -0.561,-0.597 -0.733,-0.976 l -64.039,18.259 c 0.006,0.05 0.015,0.1 0.019,0.152 0.03,0.398 -0.026,0.781 -0.151,1.135 m 169.785,-16.577 c -0.118,-0.054 -0.231,-0.119 -0.341,-0.189 l -36.065,41.287 17.821,16.798 c 0.397,-0.278 0.869,-0.458 1.387,-0.497 0.171,-0.013 0.339,-0.008 0.504,0.009 l 13.215,-45.442 z m 49.396,7.301 c -0.347,0.313 -0.774,0.54 -1.251,0.648 l 4.48,59.336 c 0.412,0.03 0.803,0.148 1.15,0.34 l 26.597,-34.765 z m 32.109,25.429 12.196,10.063 c 0.457,-0.464 1.076,-0.772 1.776,-0.825 0.137,-0.01 0.271,-0.007 0.404,0.002 l 8.493,-38.502 c -0.123,-0.047 -0.242,-0.1 -0.357,-0.164 z m 59.277,-58.472 -32.971,25.25 c 0.19,0.342 0.313,0.728 0.344,1.143 0.066,0.869 -0.274,1.675 -0.86,2.233 l 7.836,11.134 25.735,-39.681 c -0.028,-0.026 -0.056,-0.052 -0.084,-0.079 m 8.112,89.161 -33.735,-47.934 -17.624,27.175 c 0.527,0.465 0.881,1.127 0.938,1.883 0.021,0.274 0,0.541 -0.055,0.796 l 49.96,18.748 c 0.138,-0.248 0.312,-0.473 0.516,-0.668 m -265.72,33.518 22.873,-12.916 -16.33,-33.384 c -0.202,0.064 -0.414,0.108 -0.634,0.125 -0.078,0.006 -0.154,0.006 -0.23,0.006 l -7.051,45.219 c 0.546,0.171 1.025,0.504 1.372,0.95 M 110.957,-89.964 c -0.273,0.021 -0.54,0 -0.794,-0.055 l -2.865,7.652 c 0.794,0.441 1.358,1.258 1.432,2.232 0.024,0.319 -0.009,0.628 -0.087,0.921 l 33.756,14.478 c 0.006,-0.01 0.014,-0.021 0.02,-0.032 l -29.855,-25.863 c -0.436,0.375 -0.99,0.621 -1.607,0.667 m -7.056,8.138 c 0.462,-0.496 1.103,-0.829 1.833,-0.884 0.273,-0.021 0.539,0 0.794,0.054 l 2.865,-7.651 c -0.426,-0.236 -0.785,-0.583 -1.038,-1.003 l -11.377,4.731 z m -66.388,19.975 36.588,-9.891 29.072,-7.859 c -0.005,-0.038 -0.012,-0.075 -0.014,-0.114 -0.039,-0.513 0.066,-1.003 0.277,-1.434 l -7.361,-5.054 z m -7.889,0.004 c 0.448,-0.421 1.037,-0.698 1.698,-0.748 0.638,-0.048 1.24,0.125 1.737,0.45 l 34.5,-38.828 -44.071,34.259 z m -0.511,0.643 -6.292,-4.991 -30.134,23.424 36.157,-16.278 c -0.049,-0.176 -0.083,-0.36 -0.097,-0.55 -0.044,-0.582 0.094,-1.135 0.366,-1.605 M 55.834,7.759 32.096,-57.075 c -0.115,0.023 -0.233,0.042 -0.353,0.051 -0.379,0.029 -0.745,-0.02 -1.085,-0.132 L 13.653,-23.341 55.32,8.278 c 0.148,-0.194 0.32,-0.369 0.514,-0.519 m 17.038,-109.893 c -0.462,0.497 -1.103,0.83 -1.833,0.885 -0.637,0.048 -1.24,-0.124 -1.736,-0.449 L 33.673,-61.6 c 0.093,0.11 0.176,0.228 0.251,0.352 L 95.268,-86.757 Z M 439.26,22.05 c 0.551,-0.041 1.077,0.082 1.53,0.326 l 25.245,-33.888 c -0.238,-0.239 -0.431,-0.52 -0.571,-0.834 l -37.587,10.455 10.832,24.039 c 0.177,-0.05 0.361,-0.083 0.551,-0.098 m -62.125,0.02 13.987,-22.308 -19.069,-7.251 c -0.328,0.583 -0.861,1.038 -1.508,1.266 l 5.416,27.977 c 0.421,0.018 0.818,0.13 1.174,0.316 m -98.475,0.16 c 0.367,-0.027 0.721,0.019 1.052,0.123 l 17.522,-35.933 -20.808,30.958 1.854,4.91 c 0.124,-0.026 0.25,-0.048 0.38,-0.058 M 2.996,2.575 C 3.006,2.71 3.003,2.843 2.994,2.974 L 49.91,8.866 54.791,9.479 C 54.82,9.315 54.863,9.157 54.92,9.004 L 13.277,-22.595 1.7,0.426 C 2.421,0.882 2.927,1.659 2.996,2.575 M -13.09,-41.103 c -0.116,-1.539 1.037,-2.88 2.575,-2.996 0.311,-0.024 0.613,0.007 0.9,0.08 L 3.04,-78.901 c -0.807,-0.437 -1.384,-1.261 -1.458,-2.245 -0.116,-1.538 1.037,-2.88 2.575,-2.996 1.153,-0.087 2.195,0.539 2.694,1.505 l 61.231,-20.894 c -0.018,-0.096 -0.031,-0.194 -0.038,-0.293 -0.117,-1.539 1.036,-2.88 2.575,-2.996 1.538,-0.116 2.88,1.037 2.996,2.575 0.014,0.193 0.009,0.382 -0.015,0.567 l 34.599,9.782 c 0.407,-0.902 1.281,-1.559 2.337,-1.639 1.539,-0.116 2.88,1.037 2.996,2.576 0.047,0.625 -0.118,1.216 -0.43,1.707 l 29.855,25.863 c 0.436,-0.375 0.99,-0.621 1.607,-0.668 0.674,-0.05 1.31,0.142 1.822,0.504 l 64.432,-67.454 c -0.327,-0.419 -0.538,-0.935 -0.581,-1.504 -0.116,-1.538 1.037,-2.88 2.575,-2.996 1.539,-0.116 2.88,1.037 2.996,2.575 0.03,0.394 -0.024,0.774 -0.146,1.124 l 99.919,52.098 c 0.118,-1.337 1.186,-2.432 2.569,-2.536 1.538,-0.116 2.879,1.037 2.996,2.575 0.006,0.088 0.008,0.175 0.006,0.262 l 40.913,6.852 c 0.34,-1.046 1.282,-1.836 2.447,-1.924 1.399,-0.106 2.631,0.839 2.931,2.168 l 52.338,-3.951 c 0.097,-1.358 1.174,-2.478 2.572,-2.583 0.829,-0.063 1.599,0.245 2.152,0.781 l 32.979,-25.256 c -0.181,-0.335 -0.298,-0.711 -0.328,-1.115 -0.116,-1.538 1.037,-2.879 2.575,-2.995 1.538,-0.117 2.88,1.036 2.996,2.575 0.106,1.408 -0.852,2.647 -2.194,2.937 l 7.65,87.654 c 1.373,0.081 2.51,1.165 2.616,2.575 0.117,1.538 -1.036,2.88 -2.575,2.996 -0.552,0.041 -1.077,-0.083 -1.53,-0.327 l -25.245,33.889 c 0.454,0.455 0.754,1.067 0.807,1.759 0.116,1.538 -1.037,2.879 -2.576,2.995 -1.538,0.117 -2.88,-1.037 -2.996,-2.575 -0.033,-0.448 0.043,-0.878 0.203,-1.268 L 406.816,5.906 c -0.467,0.573 -1.157,0.962 -1.953,1.022 -0.839,0.063 -1.618,-0.253 -2.173,-0.801 l -24.304,17.265 c 0.131,0.29 0.218,0.606 0.243,0.942 0.116,1.538 -1.037,2.879 -2.575,2.995 -1.538,0.117 -2.88,-1.036 -2.996,-2.575 0,-0.002 0,-0.005 0,-0.008 l 0.001,0.419 -91.426,0.254 c -0.184,1.266 -1.223,2.282 -2.553,2.382 -0.656,0.05 -1.276,-0.133 -1.781,-0.477 l -25.948,28.108 c 0.343,0.426 0.566,0.955 0.61,1.541 0.116,1.539 -1.037,2.88 -2.575,2.996 -1.538,0.116 -2.88,-1.037 -2.996,-2.575 -0.041,-0.545 0.08,-1.063 0.317,-1.513 l -46.56,-34.187 c -0.457,0.462 -1.074,0.768 -1.772,0.821 -1.539,0.116 -2.88,-1.037 -2.996,-2.575 -0.044,-0.585 0.096,-1.141 0.37,-1.613 L 168.1,-3.744 c -0.448,0.417 -1.034,0.692 -1.692,0.742 -1.539,0.116 -2.88,-1.037 -2.996,-2.575 -0.008,-0.11 -0.008,-0.218 -0.004,-0.325 L 99.96,-19.296 c -0.382,0.963 -1.283,1.677 -2.385,1.76 -0.816,0.062 -1.574,-0.236 -2.126,-0.757 L 59.961,8.585 c 0.2,0.35 0.331,0.747 0.363,1.175 0.116,1.539 -1.037,2.88 -2.575,2.996 -1.497,0.113 -2.804,-0.976 -2.981,-2.452 L 2.818,3.78 C 2.444,4.759 1.535,5.487 0.421,5.571 -1.118,5.687 -2.459,4.534 -2.575,2.996 -2.661,1.856 -2.05,0.825 -1.102,0.32 l -9.028,-38.847 c -1.523,0.096 -2.845,-1.05 -2.96,-2.576"
                             style="fill:#000000;fill-opacity:1;fill-rule:nonzero;stroke:none"
                             id="path63" />
                        </g>
                      </g>
                    </g>
                  </g>
                </g>
              </g>
            </g>
          </g>
        </g>
      </g>
    </g>
  </g>
</svg>
