<svg width="508.99999999999994" height="14" xmlns="http://www.w3.org/2000/svg" preserveAspectRatio="none">

 <g>
  <title>Layer 1</title>
  <g transform="rotate(179.27 254.624 5.59505)" id="svg_1">
   <path id="svg_2" d="m308.498,11.51l-2.647,0l-41.68,-0.233c-2.647,0 -5.293,0 -7.94,-0.039c-5.86,-0.077 -11.814,-0.194 -17.768,-0.271l-23.912,-0.35l-8.601,-0.116c-1.134,0 -2.268,0 -3.402,-0.038c-12.003,-0.31 -24.101,-0.66 -36.104,-0.97l-16.73,-0.465c-3.118,-0.078 -6.143,-0.233 -9.261,-0.35c-12.476,-0.465 -25.047,-0.93 -37.522,-1.434c-1.513,-0.078 -3.12,-0.155 -4.632,-0.233c-3.118,-0.155 -6.143,-0.31 -9.262,-0.465c-0.378,-0.039 -0.661,-0.039 -1.04,-0.039c-5.954,-0.155 -12.003,-0.31 -18.052,-0.504c-4.631,-0.155 -9.167,-0.271 -13.704,-0.388c-0.567,0 -1.04,-0.039 -1.607,-0.039c-2.174,-0.038 -4.442,-0.077 -6.616,-0.155c-1.984,-0.038 -3.875,-0.116 -5.765,-0.155c-1.701,-0.039 -3.497,-0.116 -5.293,-0.194c-0.756,-0.038 -1.512,-0.116 -2.08,-0.349c-0.566,-0.232 -0.85,-0.543 -0.85,-0.853c-3.78,-0.155 -7.655,-0.31 -11.436,-0.465a7.413,7.413 0 0 1 -0.756,0.232a8.589,8.589 0 0 1 -2.835,0.156c-0.567,-0.078 -1.134,-0.194 -1.607,-0.388c-0.284,-0.039 -0.473,-0.039 -0.756,-0.078c-2.08,-0.077 -4.064,-0.039 -6.144,-0.077c-1.04,0 -2.173,-0.04 -3.213,-0.078c-0.756,-0.039 -1.418,-0.077 -2.174,-0.116c-0.378,-0.039 -0.85,-0.078 -1.228,-0.117c-0.473,-0.077 -0.851,-0.155 -1.324,-0.232c-0.85,-0.155 -1.512,-0.62 -1.795,-0.97a0.713,0.713 0 0 1 0,-0.853c0.472,-0.698 2.078,-1.24 3.78,-1.202c2.174,0.039 4.442,0.116 6.71,0.194c1.985,0.077 4.065,0.116 6.049,0.194l13.327,0.465c2.363,0.078 4.82,0.194 7.277,0.272c2.647,0.116 5.388,0.193 8.034,0.31l18.714,0.93c11.34,0.543 22.588,1.125 33.93,1.668c2.93,0.039 5.765,0.039 8.695,0.078c10.869,0.077 21.738,0.155 32.607,0.271c5.86,0.039 11.72,0.039 17.58,0.078c4.442,0.038 8.79,0.038 13.232,0.077l69.373,0.466l14.46,0.116c1.513,-0.039 2.93,-0.078 4.348,-0.078c7.183,-0.077 14.27,-0.194 21.455,-0.271l12.003,-0.233c6.616,-0.116 13.326,-0.271 20.037,-0.388c4.442,-0.077 8.978,-0.194 13.42,-0.31c6.71,-0.194 13.327,-0.349 20.037,-0.504c4.632,-0.116 9.263,-0.194 13.894,-0.31l11.342,-0.233c1.512,0 2.929,-0.039 4.442,-0.077c6.427,-0.078 12.853,-0.194 19.28,-0.31c2.08,0 4.064,-0.078 6.049,-0.117c2.647,-0.078 5.198,-0.116 7.75,-0.194c5.482,-0.155 11.058,-0.31 16.54,-0.504c3.213,-0.116 6.332,-0.233 9.546,-0.349l5.67,-0.233c0.095,-0.194 0.568,-0.388 1.135,-0.388c0.661,0.04 1.417,0.078 2.079,0.078c0.662,0 1.323,0 1.89,0.155c0.473,0.155 0.756,0.35 0.567,0.582c-0.094,0.155 -0.472,0.31 -0.85,0.349c-1.04,0.077 -2.174,0.194 -3.308,0.233c-0.85,0.077 -1.796,0.116 -2.647,0.155l-4.536,0.232c-5.198,0.233 -10.491,0.466 -15.69,0.66c-5.954,0.193 -12.002,0.387 -18.051,0.581c-2.08,0.039 -4.064,0.117 -6.05,0.155c-3.496,0.04 -6.9,0.117 -10.396,0.194c-4.442,0.078 -8.884,0.155 -13.326,0.272c-11.153,0.271 -22.211,0.543 -33.27,0.853l-13.325,0.349l49.808,0c11.153,0 22.4,-0.039 33.553,-0.078l12.853,-0.116c5.199,-0.039 10.397,-0.078 15.595,-0.155l33.836,-0.465l17.957,-0.233c2.552,-0.039 5.104,-0.039 7.656,-0.078c1.323,0 2.646,-0.038 3.97,-0.038c0.756,0 1.417,0 2.079,-0.04c0.567,-0.038 1.04,-0.038 1.607,-0.038c0.378,0 0.661,0.039 1.04,0.039c0.566,0 1.133,0.077 1.606,0.194c0.19,0.077 0.378,0.116 0.567,0.155c1.512,0.388 2.268,1.086 1.796,1.784c-0.284,0.504 -1.323,0.97 -2.647,1.085c-1.7,0.156 -3.402,0.35 -5.198,0.466c-1.512,0.116 -3.119,0.194 -4.725,0.271c-1.985,0.078 -4.065,0.155 -6.05,0.233c-3.024,0.116 -5.954,0.194 -8.884,0.31c-4.63,0.155 -9.262,0.272 -13.893,0.427c-10.87,0.349 -21.644,0.62 -32.513,0.892c-9.924,0.271 -19.753,0.504 -29.677,0.698c-11.058,0.194 -22.021,0.426 -33.08,0.581c-7.466,0.117 -15.027,0.194 -22.588,0.31c-1.418,0 -2.741,0.04 -4.16,0.04l-5.764,0c-7.75,0.038 -15.5,0.038 -23.25,0.077c-2.363,0.039 -4.726,0.039 -7.561,0.039zm48.958,-3.568c-7.183,-0.039 -14.272,-0.039 -21.455,-0.039c-11.625,0 -23.345,-0.039 -34.97,-0.077a8136.055,8136.055 0 0 1 -31,-0.194l-30.623,-0.233l-30.811,-0.233c6.143,0.078 12.38,0.194 18.524,0.272l22.967,0.349c2.93,0.039 5.765,0.116 8.695,0.116l40.358,0.233c3.119,0 6.332,0.039 9.546,0.039c6.616,0 13.23,-0.04 19.847,-0.04c5.577,0 11.058,-0.038 16.635,-0.038c1.417,-0.039 2.93,-0.039 4.442,-0.077c2.552,0 5.104,-0.04 7.845,-0.078z" fill="#f9a645"/>
  </g>
 </g>
</svg>